<svg width="2613" height="2548" viewBox="0 0 2613 2548" fill="none" xmlns="http://www.w3.org/2000/svg">
<path fill-rule="evenodd" clip-rule="evenodd" d="M462.719 0H2150.28C2406.14 0 2613 206.889 2613 462.778V2085.22C2613 2341.11 2406.14 2548 2150.28 2548H462.719C206.863 2548 0 2341.11 0 2085.22V462.778C0 206.889 206.863 0 462.719 0ZM1049.56 1524.44H644.54L561.795 1781.42C559.618 1791.22 550.908 1797.76 541.109 1796.67H336.424C324.447 1796.67 321.181 1790.13 324.447 1777.07L675.025 772.022C678.291 761.135 681.556 751.337 685.91 738.273L685.913 738.267C690.268 715.4 692.445 691.445 692.445 667.489C691.356 662.045 695.711 656.6 701.155 655.511H983.141C990.763 655.511 996.206 658.778 997.295 664.222L1394.69 1774.89C1397.96 1786.87 1394.69 1792.31 1383.8 1792.31H1156.25C1148.63 1793.4 1141.01 1787.96 1138.83 1780.33L1049.56 1519V1524.44ZM984.23 1307.76H707.688C724.019 1262.02 741.439 1210.84 755.593 1155.31C766.377 1121.61 776.743 1087.9 786.951 1054.72L786.953 1054.71L786.96 1054.69C793.238 1034.27 799.457 1014.06 805.675 994.156C820.918 947.333 832.894 900.511 842.693 853.689H844.87C849.118 868.255 853.366 883.499 857.803 899.419L857.804 899.422C861.326 912.062 864.968 925.129 868.823 938.622C877.533 970.2 887.331 1001.78 898.219 1035.53C903.663 1052.41 908.834 1069.02 914.006 1085.62C919.177 1102.23 924.349 1118.83 929.793 1135.71C939.591 1168.38 949.39 1199.96 959.189 1229.36C968.988 1257.67 977.698 1284.89 984.23 1307.76ZM1690.83 1426.44H2035.96C2050.55 1426.44 2064.56 1427.6 2078.14 1428.72C2090.91 1429.78 2103.3 1430.8 2115.44 1430.8C2140.48 1430.8 2161.17 1429.71 2178.59 1427.53C2184.71 1427.15 2190.15 1426.77 2194.92 1426.43C2203.75 1425.81 2210.28 1425.36 2214.52 1425.36C2222.14 1425.36 2228.67 1418.82 2229.76 1411.2C2230.25 1406.83 2230.73 1401.39 2231.31 1394.86C2232.03 1386.74 2232.91 1376.94 2234.11 1365.47C2235.2 1344.78 2236.29 1321.91 2236.29 1295.78C2236.29 1251.13 2229.76 1206.49 2215.61 1162.93C2201.45 1117.2 2178.59 1075.82 2150.28 1038.8C2119.8 1000.69 2080.6 971.289 2035.96 951.689C1982.61 927.733 1924.91 916.845 1867.21 917.933C1797.53 917.933 1736.56 926.644 1685.39 951.689C1634.21 976.733 1589.57 1011.58 1553.65 1055.13C1516.63 1099.78 1489.41 1149.87 1471.99 1204.31C1453.48 1260.93 1444.77 1318.64 1444.77 1377.44C1444.77 1431.89 1452.39 1485.24 1467.64 1536.42C1482.88 1588.69 1507.92 1636.6 1542.76 1679.07C1579.78 1723.71 1626.59 1759.64 1679.94 1782.51C1736.56 1807.56 1806.24 1820.62 1888.98 1820.62C1941.24 1821.71 1992.41 1817.36 2043.58 1807.56C2081.69 1801.02 2117.62 1790.13 2152.46 1774.89C2155.72 1772.71 2157.9 1770.53 2160.08 1767.27C2161.17 1762.91 2162.26 1758.56 2162.26 1754.2V1587.6C2162.26 1576.71 2158.99 1574.53 2153.55 1578.89C2123.06 1590.87 2090.4 1599.58 2056.65 1603.93C2019.63 1611.56 1981.52 1614.82 1943.42 1615.91C1895.51 1617 1847.61 1607.2 1804.06 1588.69C1771.4 1575.62 1744.18 1552.76 1724.58 1523.36C1706.07 1493.96 1695.18 1460.2 1690.83 1426.44ZM1690.83 1267.47H1920.55C1948.86 1267.47 1969.55 1267.47 1982.61 1266.38C1991.32 1265.29 2000.03 1263.11 2007.65 1257.67V1246.78C2007.65 1232.62 2005.48 1219.56 2001.12 1206.49C1981.53 1145.51 1923.82 1104.13 1859.59 1106.31C1799.7 1103.04 1743.09 1134.62 1714.78 1189.07C1701.72 1214.11 1694.09 1240.24 1690.83 1267.47Z" fill="white"/>
</svg>
