<svg width="2500" height="2034" viewBox="0 0 2500 2034" fill="none" xmlns="http://www.w3.org/2000/svg">
<g clip-path="url(#clip0_133_126)">
<path d="M2492.64 1132.66C2477.97 1029.45 2442.22 931.574 2386.35 841.777C2337.63 763.409 2275.11 693.709 2200.49 634.47L2200.69 634.284L1416.99 32.3512C1416.42 31.8537 1415.83 31.3851 1415.22 30.9471C1389.16 10.9869 1353.89 0.00390625 1315.92 0.00390625C1277.91 0.00390625 1241.25 11.0114 1212.76 31.0107C1182.12 52.4142 1164.6 80.8134 1163.38 111.042C1162.26 139.246 1175.71 166.383 1201.36 187.537C1251.8 227.335 1302.13 267.999 1352.52 308.712C1401.43 348.241 1451.82 388.949 1501.97 428.581L542.058 427.93C432.282 427.93 357.534 479.48 342.158 565.783C335.401 603.585 347.324 645.149 373.976 676.983C402.253 710.729 443.309 729.344 489.575 729.344L562.752 729.393C663.845 729.393 765.383 729.144 866.784 728.899L963.483 728.674L92.2782 1373.21L88.8194 1375.74C40.1566 1413.04 8.29849 1465.33 1.42494 1519.2C-3.78526 1560.01 5.73498 1597.31 28.9681 1627.09C56.658 1662.6 99.8905 1682.13 150.711 1682.13C200.636 1682.13 251.578 1663.21 294.219 1628.76L764.683 1243.75C762.672 1262.55 760.231 1290.13 760.51 1310.15C761.038 1341.84 771.214 1405.44 787.324 1457.08C820.611 1563.19 876.68 1660.27 953.968 1745.53C1034.39 1834.24 1132.33 1904.58 1245.05 1954.54C1364.23 2007.25 1492.34 2034 1625.84 2034H1627.08C1761.01 2033.68 1889.53 2006.5 2009.09 1953.19C2122 1902.63 2219.9 1832.01 2300.02 1743.32C2377.2 1657.63 2433.2 1560.38 2466.42 1454.36C2482.85 1401.87 2493.38 1347.72 2497.81 1292.9C2501.91 1239.91 2500.15 1186 2492.64 1132.66V1132.66ZM1635.6 1641.25C1341.38 1641.25 1102.79 1427.82 1102.79 1164.52C1102.79 901.252 1341.39 687.819 1635.6 687.819C1929.83 687.819 2168.4 901.252 2168.4 1164.52C2168.41 1427.82 1929.83 1641.25 1635.6 1641.25ZM1942.87 1122.63C1947.21 1201.21 1915.82 1274.18 1860.7 1328.19C1804.63 1383.22 1724.62 1417.79 1635.15 1417.79C1545.72 1417.79 1465.7 1383.22 1409.61 1328.19C1354.52 1274.18 1323.19 1201.22 1327.51 1122.69C1331.73 1046.36 1368.97 978.979 1425.05 931.27C1480.2 884.359 1554.26 855.739 1635.15 855.739C1716.05 855.739 1790.09 884.369 1845.24 931.27C1901.35 978.979 1938.6 1046.31 1942.87 1122.63V1122.63Z" fill="white"/>
</g>
<defs>
<clipPath id="clip0_133_126">
<rect width="2500" height="2034" fill="white"/>
</clipPath>
</defs>
</svg>
