<svg width="1742" height="1638" viewBox="0 0 1742 1638" fill="none" xmlns="http://www.w3.org/2000/svg">
<path d="M1451.56 583.467V699.579H1567.68V583.467H1625.73V699.579H1741.84V757.635H1625.73V873.738H1741.84V931.794H1625.73V1047.91H1567.68V931.794H1451.56V1047.91H1393.51V931.794H1277.4V873.738H1393.51V757.635H1277.4V699.579H1393.51V583.467H1451.56ZM1567.68 757.626H1451.56V873.738H1567.68V757.626Z" fill="white"/>
<path d="M818.74 0.339423C1121.59 0.339423 1386 164.813 1527.63 409.291L1526.25 406.938L1169.92 612.103C1099.72 493.242 971.028 413.022 823.384 411.367L818.731 411.342C593.599 411.342 411.081 593.86 411.081 818.991C411.007 889.951 429.545 959.688 464.845 1021.24C535.112 1143.91 667.21 1226.65 818.74 1226.65C971.209 1226.65 1104.06 1142.86 1173.96 1018.88L1172.26 1021.86L1528.05 1227.97C1387.98 1470.38 1127.19 1634.34 827.857 1637.61L818.74 1637.66C514.93 1637.66 249.77 1472.17 108.495 1226.4C39.5297 1106.42 0.0703125 967.324 0.0703125 818.991C0.0703125 366.867 366.589 0.330811 818.731 0.330811L818.74 0.339423Z" fill="white"/>
</svg>
