<svg width="5119" height="5119" viewBox="0 0 5119 5119" fill="none" xmlns="http://www.w3.org/2000/svg">
<path d="M2637.9 5118.9H2486.2C2479.1 5116.3 2472.1 5115.7 2465 5115.7C2384 5111.8 2303.6 5105.4 2223.9 5094.5C2074.8 5075.2 1928.2 5042.4 1785.5 4996.8C1540.6 4918.4 1312.4 4805.9 1100.9 4659.3C904.8 4523 731.3 4362.3 580.2 4177.2C402.1 3959.9 263.3 3720.1 164.9 3456.6C76.8004 3222.6 24.1004 2980.3 8.00039 2730.2C7.40039 2716.7 5.40039 2703.2 0.900391 2689.7V2425.5C5.40039 2413.9 7.30039 2401.7 8.00039 2389.5C11.2004 2329.7 17.6004 2269.9 25.4004 2210.8C64.0004 1925.4 148.8 1654.7 279.3 1398.2C369.3 1221.4 478.6 1056.9 607.1 905.1C734.4 754.7 877.1 620.3 1035.2 502.7C1293 311.1 1576.5 172.9 1886.3 88.1C2036.7 47 2190.4 20 2345.9 7.1C2373.5 4.5 2402.5 6.5 2430.1 0H2689.8C2709.7 5.8 2730.3 2.6 2750.2 4.5C2853.1 13.5 2955.3 26.4 3056.8 46.3C3376.3 109.3 3672.6 228.9 3946.5 405.6C4159.3 542.5 4347 707.7 4510.9 899.9C4642.7 1054.2 4754.5 1222 4845.8 1403.2C4953.8 1617.3 5030.9 1841.6 5074.7 2077.5C5097.8 2202.2 5115.2 2328.2 5115.8 2455.5C5115.8 2463.9 5117.7 2472.9 5118.4 2481.2V2632.9C5115.8 2642.5 5115.8 2652.8 5115.2 2663.1C5115.2 2687.5 5115.2 2712 5113.3 2736.4C5101.7 2892 5077.3 3045.6 5038.7 3197.3C4964.8 3482.1 4845.8 3746.3 4680.6 3989.9C4557.8 4171.2 4414.5 4334.5 4249.9 4479.1C4086 4623.1 3906.6 4744.6 3711.8 4842.9C3487.4 4956 3251.5 5034.5 3004 5077.5C2908.9 5094.2 2813.1 5105.1 2716.7 5110.9C2691.3 5113.8 2664.3 5113.2 2637.9 5118.9ZM1603.6 3897.5C1646 3898.8 1693.6 3893.6 1741.2 3883.4C1882 3852.5 2001.6 3788.3 2093.5 3674.5C2149.4 3605.1 2196.4 3529.9 2236.9 3450.8C2284.5 3357.6 2324.3 3260.5 2359 3162.2C2401.4 3043.3 2437.4 2921.8 2465.1 2799C2480.5 2730.2 2463.2 2687.1 2387.3 2663.4C2290.9 2633.2 2193.8 2606.2 2094.8 2584.3C1930.9 2548.3 1765.7 2525.2 1597.2 2530.9C1549.6 2532.8 1502.1 2538 1455.1 2546.3C1318.8 2570.1 1203.1 2633.1 1108.6 2732.7C947.2 2902.4 883 3104.9 922.8 3335.7C980 3665.5 1271.9 3900.1 1603.6 3897.5ZM1875.5 1533.2C1873.6 1581.4 1882.6 1634.1 1897.4 1686.8C1925.7 1787.1 1972.6 1879 2027.9 1965.8C2153.9 2163.2 2312.7 2332.2 2485 2489.1C2499.1 2502 2515.9 2512.9 2533.9 2521.2C2551.9 2530.2 2569.9 2530.2 2588.5 2522.5C2606.5 2514.8 2622.6 2503.9 2636.1 2489.7C2695.9 2430.6 2755 2371.4 2811.6 2310.3C2891.3 2223.5 2967.2 2134.2 3036 2038.4C3098.4 1951.6 3154.3 1860.3 3195.4 1761.3C3236.5 1662.9 3256.5 1561.4 3243 1454.7C3220.5 1278.6 3145.3 1129.4 3010.9 1012.4C2852 874.3 2666.9 819 2458.6 849.8C2119.8 900 1874.2 1198.3 1875.5 1533.2ZM3545.6 3893.7C3562.3 3893.1 3592.5 3893.7 3622.7 3889.2C3825.8 3859 3986.5 3760.6 4099.7 3588.4C4188.4 3452.8 4224.4 3302.3 4207.7 3141C4192.3 2989.9 4131.2 2857.5 4027.7 2746.3C3937.7 2649.9 3830.3 2583 3700.5 2554.7C3629.1 2539.3 3556.5 2532.8 3483.9 2531.6C3397.8 2530.3 3312.3 2538 3227.4 2549.6C3057.7 2573.4 2891.8 2613.9 2728.6 2665.3C2711.9 2670.4 2696.5 2678.2 2683 2689.1C2665.6 2703.2 2656 2720.6 2656 2743.1C2656 2762.4 2657.9 2781.7 2662.4 2801C2672.7 2839.6 2681.7 2878.1 2692 2916.1C2739.6 3089.7 2797.4 3259.4 2876.5 3421.4C2922.1 3514.6 2974.9 3602.7 3042.4 3681.8C3093.8 3741.6 3153.6 3790.4 3225 3824.5C3322.6 3871.2 3424.1 3896.3 3545.6 3893.7Z" fill="white"/>
</svg>
