<svg width="1823" height="2500" viewBox="0 0 1823 2500" fill="none" xmlns="http://www.w3.org/2000/svg">
<path d="M0 2015.5L15.1181 1994.34L730.104 637.672L731.614 623.309L416.442 31.2827C390.022 -18.3086 315.678 -5.76838 307.019 49.7477L0 2015.5Z" fill="white"/>
<path d="M8.92188 1999.37L20.3512 1977.07L727.853 634.616L413.457 40.1829C387.33 -8.88859 320.975 3.62317 312.402 58.5553L8.92188 1999.37Z" fill="white"/>
<path d="M8.92188 1999.37L20.3512 1977.07L727.853 634.616L413.457 40.1829C387.33 -8.88859 320.975 3.62317 312.402 58.5553L8.92188 1999.37Z" fill="white"/>
<path d="M961.383 1071.12L1196.06 830.781L961.311 382.65C939.03 340.23 876.813 340.102 854.766 382.65L729.342 621.827V642.193L961.376 1071.12H961.383Z" fill="white"/>
<path d="M957.195 1061.11L1185.35 827.449L957.195 393.013C935.533 351.774 882.901 347.452 861.466 388.811L735.387 631.705L731.613 644.124L957.195 1061.11V1061.11Z" fill="white"/>
<path d="M957.195 1061.11L1185.35 827.449L957.195 393.013C935.533 351.774 882.901 347.452 861.466 388.811L735.387 631.705L731.613 644.124L957.195 1061.11V1061.11Z" fill="white"/>
<path d="M0 2015.5L6.85049 2008.61L31.7458 1998.5L946.643 1087L958.236 1055.44L730.005 620.531L0 2015.5Z" fill="white"/>
<path d="M990.694 2475.19L1818.7 2013.41L1582.25 557.181C1574.85 511.621 1518.96 493.611 1486.34 526.276L0 2015.5L823.255 2475.16C848.844 2489.44 877.663 2496.95 906.97 2496.95C936.277 2496.96 965.099 2489.47 990.694 2475.19" fill="white"/>
<path d="M1811.28 2009.54L1576.62 564.368C1569.29 519.149 1522.8 500.441 1490.44 532.864L9.18555 2012.67L823.404 2467.76C848.798 2481.94 877.397 2489.39 906.481 2489.4C935.564 2489.41 964.167 2481.97 989.568 2467.81L1811.29 2009.53L1811.28 2009.54Z" fill="white"/>
<path d="M990.687 2461.58C965.093 2475.86 936.273 2483.35 906.967 2483.34C877.661 2483.34 848.844 2475.83 823.256 2461.55L6.63043 2008.5L0.0078125 2015.5L823.256 2475.16C848.845 2489.44 877.664 2496.95 906.971 2496.95C936.278 2496.96 965.099 2489.47 990.694 2475.19L1818.7 2013.41L1816.67 2000.93L990.694 2461.59L990.687 2461.58Z" fill="white"/>
</svg>
