<svg width="2613" height="2547" viewBox="0 0 2613 2547" fill="none" xmlns="http://www.w3.org/2000/svg">
<path fill-rule="evenodd" clip-rule="evenodd" d="M2150.28 0H462.719C206.863 0 0 206.808 0 462.596V2084.4C0 2340.19 206.863 2547 462.719 2547H2150.28C2406.14 2547 2613 2340.19 2613 2084.4V462.596C2613 206.808 2406.14 0 2150.28 0ZM857.935 1523.85H1262.95L1352.23 1782.9C1354.4 1790.52 1362.03 1795.96 1369.65 1794.87H1597.2C1608.08 1794.87 1611.35 1789.43 1608.08 1777.46L1210.69 656.342C1209.6 650.9 1205.25 647.635 1196.54 647.635H914.55C909.106 648.723 904.751 654.165 905.84 659.608C905.84 683.554 903.662 707.5 899.307 730.358C896.222 739.612 893.683 748.32 891.303 756.482L891.301 756.487L891.294 756.513L891.291 756.522C890.316 759.866 889.368 763.117 888.42 766.277L537.843 1775.28C534.576 1788.34 537.842 1794.87 549.819 1794.87H754.504C764.303 1795.96 773.012 1789.43 775.19 1779.63L857.935 1523.85ZM921.082 1302.89H1197.62C1191.09 1280.03 1182.38 1252.82 1172.58 1224.52C1162.78 1195.13 1152.99 1163.57 1143.19 1130.91C1137.75 1114.06 1132.58 1097.48 1127.42 1080.89L1127.41 1080.87L1127.4 1080.84C1122.23 1064.24 1117.06 1047.64 1111.61 1030.77C1100.73 997.031 1090.93 965.465 1082.22 933.9C1078.36 920.413 1074.72 907.353 1071.2 894.719L1071.19 894.695C1066.76 878.787 1062.51 863.556 1058.26 849H1056.09C1046.29 895.804 1034.31 942.608 1019.07 989.412C1012.85 1009.3 1006.63 1029.51 1000.36 1049.91L1000.35 1049.94C990.14 1083.12 979.772 1116.81 968.987 1150.5C953.745 1206.02 937.414 1257.17 921.082 1302.89ZM1728.93 1782.9V944.785C1728.93 933.9 1733.29 929.546 1743.09 929.546H1958.66C1968.46 929.546 1972.81 934.988 1972.81 944.785V1782.9C1972.81 1794.87 1968.46 1800.32 1958.66 1800.32H1745.27C1734.38 1800.32 1728.93 1793.78 1728.93 1782.9ZM1753.98 800.019C1780.11 825.054 1814.95 839.204 1850.87 838.115C1887.89 840.292 1924.91 826.142 1949.95 800.019C1976.08 772.808 1989.15 736.888 1988.06 699.881C1989.15 663.962 1976.08 629.131 1952.13 603.008C1928.18 577.973 1895.51 564.912 1853.05 564.912C1817.12 564.912 1782.28 577.973 1756.15 603.008C1730.02 628.042 1715.87 662.873 1716.96 699.881C1715.87 736.888 1728.93 772.808 1753.98 800.019Z" fill="white"/>
</svg>
