<svg width="2247" height="2477" viewBox="0 0 2247 2477" fill="none" xmlns="http://www.w3.org/2000/svg">
<path d="M2070.68 1666.97C2053.69 1764.93 1993.25 1850.49 1904.87 1901.74C1822.47 1949.5 1723.74 1963.76 1619.19 1978.84C1563.19 1986.92 1505.28 1995.29 1448.71 2009.25C1299.13 2046.17 1154.24 2118.21 1014.14 2187.87C733.743 2327.28 491.593 2447.67 263.264 2289.26C96.0097 2173.24 103.73 1958.56 123.214 1840.92C141.274 1731.92 190.1 1631.55 237.308 1534.48C245.351 1517.98 253.329 1501.45 261.242 1484.89C285.039 1494.41 310.009 1500.69 335.478 1503.53C287.418 1662.3 363 1834.93 521.629 1916.49L543.346 1927.66L566.331 1919.47C691.741 1874.76 807.303 1803.03 909.799 1706.23C976.052 1643.66 1033.02 1574.44 1079.84 1500.47C1094.08 1502.62 1108.45 1503.7 1122.85 1503.7C1268.44 1503.7 1389.01 1394.75 1407.67 1254.04C1467.26 1251.85 1530.56 1251.84 1590.5 1254.02C1609.14 1394.75 1729.73 1503.71 1875.32 1503.71C1936.2 1503.71 1992.67 1484.61 2039.19 1452.17C2071.49 1518.35 2083.54 1592.8 2070.68 1666.97ZM367.537 1042.94C463.799 1042.94 542.107 1121.33 542.107 1217.69C542.107 1252.29 531.96 1284.57 514.542 1311.75C485.526 1357.05 436.199 1388.1 379.53 1391.97C375.564 1392.23 371.564 1392.43 367.537 1392.43C346.082 1392.43 325.534 1388.51 306.533 1381.4C268.266 1367 236.22 1339.68 215.924 1304.15C200.854 1277.83 192.935 1248.02 192.958 1217.69C192.958 1121.33 271.274 1042.94 367.537 1042.94ZM948.285 1216.02C948.285 1128.48 1012.94 1055.79 1096.94 1043.22C1105.4 1041.95 1114.05 1041.29 1122.85 1041.29C1178.82 1041.29 1228.65 1067.82 1260.6 1108.94C1268.6 1119.19 1275.44 1130.31 1280.98 1142.08C1291.83 1165.21 1297.45 1190.46 1297.43 1216.02C1297.43 1229.99 1295.74 1243.57 1292.63 1256.6C1275.62 1327.89 1214.89 1382.38 1140.47 1389.88C1134.68 1390.46 1128.81 1390.76 1122.85 1390.76C1089.28 1390.79 1056.41 1381.07 1028.25 1362.77C980.185 1331.6 948.285 1277.48 948.285 1216.02ZM1676.89 1008.23C1638.9 1044.52 1611.56 1090.54 1597.84 1141.28C1532.04 1138.85 1466.17 1138.85 1400.37 1141.28C1385.6 1086.43 1354.98 1038.04 1313.79 1001.28L1494.43 635.664L1676.89 1008.23ZM898.756 105.955H2089.61L1808.34 936.305C1796.24 939.206 1784.34 942.895 1772.72 947.35L1494.87 379.998L1216.23 943.962C1204.09 939.788 1191.67 936.439 1179.08 933.937L898.756 105.955ZM2049.89 1216.03C2049.89 1233.55 2047.28 1250.46 2042.47 1266.44C2031.06 1304.05 2007.37 1336.73 1975.18 1359.25C1945.93 1379.79 1911.06 1390.8 1875.32 1390.77C1794.72 1390.77 1726.73 1335.79 1706.73 1261.33C1702.76 1246.56 1700.75 1231.33 1700.75 1216.03C1700.75 1192.15 1705.57 1169.37 1714.28 1148.62C1718.77 1138 1724.3 1127.85 1730.79 1118.32C1762.21 1071.9 1815.22 1041.29 1875.32 1041.29C1880.84 1041.29 1886.27 1041.58 1891.66 1042.09C1980.29 1050.35 2049.9 1125.19 2049.9 1216.03H2049.89ZM2162.73 1216.03C2162.73 1075.58 2061.63 958.396 1928.48 933.365L2247 -7H741.384L1060.4 935.266C931.869 963.896 835.457 1078.87 835.457 1216.02C835.457 1319.02 889.831 1409.48 971.322 1460.31C932.124 1518.77 885.646 1573.78 832.38 1624.08C747.9 1703.85 653.791 1764.35 552.333 1804.16C450.135 1739.9 406.937 1618.72 451.797 1513.15L455.314 1504.88L461.909 1489.35C574.156 1450.16 654.934 1343.23 654.934 1217.69C654.934 1059.06 526.007 930.003 367.537 930.003C209.066 930.003 80.1213 1059.06 80.1213 1217.69C80.1213 1297.75 113.006 1370.26 165.92 1422.47C156.051 1443.4 146.033 1464.26 135.867 1485.04C87.4807 1584.5 32.6495 1697.24 11.9076 1822.44C-29.2774 2071.07 37.1602 2269.83 198.99 2382.09C297.186 2450.21 396.913 2477 497.264 2477C686.219 2477 877.372 2381.97 1064.33 2289.01C1198.97 2222.08 1338.21 2152.86 1475.73 2118.91C1526.91 2106.28 1579.56 2098.67 1635.3 2090.63C1745.85 2074.66 1860.16 2058.16 1961.41 1999.46C2078.79 1931.41 2159.13 1817.26 2181.85 1686.3C2201.35 1573.86 2177.88 1461.25 2120.64 1365.74C2148.22 1320.69 2162.79 1268.86 2162.73 1216.02V1216.03Z" fill="white"/>
</svg>
