<svg width="2500" height="2500" viewBox="0 0 2500 2500" fill="none" xmlns="http://www.w3.org/2000/svg">
<path d="M1150.52 325.027L1204.7 426.788C1216.88 445.567 1230.08 462.189 1245.62 477.668C1291.19 522.669 1333.67 570.698 1372.76 621.427C1464.56 741.967 1526.48 875.829 1570.7 1020.6C1597.22 1109.04 1611.62 1199.76 1612.7 1291.5C1617.14 1565.76 1523.12 1801.25 1333.55 1996.97C1302.72 2028.01 1269.41 2056.48 1233.95 2082.11C1215.17 2082.11 1206.29 2067.71 1198.55 2054.45C1184.46 2029.86 1175.07 2002.86 1170.89 1974.83C1164.23 1941.65 1159.85 1908.47 1162.01 1874.21V1858.73C1160.49 1855.43 1143.93 332.831 1150.52 325.027V325.027Z" fill="white"/>
<path d="M1150.53 321.665C1148.3 317.224 1146.08 320.586 1143.86 322.744C1144.94 344.948 1137.2 364.742 1125.08 383.648C1111.76 402.426 1094.13 416.828 1076.43 432.308C978.09 517.446 900.691 620.286 838.709 735.306C756.234 890.104 713.728 1056 701.674 1230.66C696.155 1293.66 721.595 1515.96 741.452 1580.1C795.632 1750.37 892.951 1893.05 1019.01 2016.89C1049.97 2046.71 1083.09 2074.37 1117.35 2100.95C1127.31 2100.95 1128.38 2092.07 1130.67 2085.47C1135.03 2071.36 1138.36 2056.94 1140.63 2042.33L1162.83 1876.5L1150.53 321.665Z" fill="white"/>
<path d="M1204.71 2149.49C1206.93 2124.11 1219.11 2103.05 1232.37 2082.05C1219.04 2076.53 1209.15 2065.55 1201.41 2053.31C1194.73 2041.71 1189.21 2029.5 1184.91 2016.83C1169.43 1970.39 1166.13 1921.67 1161.69 1874.21V1845.47C1156.17 1849.91 1155.03 1887.47 1155.03 1893.05C1151.8 1943.21 1145.15 1993.09 1135.11 2042.33C1131.81 2062.25 1129.59 2082.11 1117.35 2099.81C1117.35 2102.03 1117.35 2104.25 1118.42 2107.55C1138.34 2166.17 1143.8 2225.87 1147.16 2286.71V2308.92C1147.16 2335.43 1146.08 2329.85 1168.1 2338.73C1176.98 2342.03 1186.88 2343.17 1195.76 2349.77C1202.42 2349.77 1203.5 2344.25 1203.5 2339.81L1200.2 2303.33V2201.57C1199.12 2183.81 1202.42 2166.17 1204.64 2149.55L1204.71 2149.49Z" fill="white"/>
</svg>
