<svg xmlns="http://www.w3.org/2000/svg" viewBox="0 0 2048 2048"><defs><style>.cls-1{fill:#512bd4;}</style></defs><g id="Layer_2" data-name="Layer 2"><rect class="cls-1" width="2048" height="2048"/></g><g id="Layer_1" data-name="Layer 1"><path d="M570.86,866l.77-.21c.38.64.79,1.27,1.15,1.93,6.25,11.54,11.84,23.5,18.84,34.57q120.12,190,240.54,379.82c2.15,3.39,4.5,4.65,8.44,4.64,27.66-.14,55.33-.07,83-.1,1.94,0,3.89-.27,6-.43V753.86H846.23v7.27q0,162.74.09,325.45c0,23.3,1.23,46.6,1.95,69.9.1,3.31.58,6.61,1,11-6.47-10.51-12.22-20-18.13-29.45Q712.35,948.61,593.61,759.18c-2.72-4.36-5.66-5.86-10.74-5.81-29.16.24-58.32.12-87.48.12H489c-.17,2.24-.43,4-.43,5.8q0,260.72-.09,521.43c0,4.47,1.24,6.11,5.91,6.07,24.33-.19,48.66-.08,73-.12a48.35,48.35,0,0,0,5.46-.62v-5.49q0-183.48-.08-366.95c0-8.49-.48-17-.83-25.46C571.66,880.77,571.23,873.4,570.86,866Zm472.33-112.26v6.11q0,260.21-.11,520.41c0,5,1.14,6.55,6.3,6.54q140-.22,279.95,0c5.21,0,6.44-1.75,6.38-6.65-.23-20.66-.09-41.32-.1-62,0-7.34,0-7.35-7.48-7.35h-191c-7.16,0-7.16,0-7.16-7V1062.4c0-7.65,0-7.66,7.49-7.66h164c7.3,0,7.31,0,7.31-7.46v-61c0-7.43,0-7.44-7.3-7.45h-165c-6.49,0-6.5,0-6.5-6.62q0-68.49,0-137c0-1.93.24-3.85.41-6.41h193V753.77Zm470.09,75.37V1278c0,1.5.12,3,0,4.5-.29,3,1,4.22,4,4.21q39.49-.06,79,0c3.17,0,4.63-1.21,4.4-4.45-.13-1.82,0-3.66,0-5.49V829.14h6.74c45.5,0,91,0,136.48.09,4.42,0,6.06-1,6-5.73-.26-21.5-.23-43,0-64.49,0-4.38-1.18-5.62-5.61-5.62q-187.23.18-374.45,0c-4.6,0-5.53,1.52-5.49,5.73.18,21.33.22,42.66,0,64,0,4.8,1.3,6.16,6.12,6.14,45.49-.18,91-.11,136.48-.11ZM298.15,1244.53c-.27,13.18,4.49,24.39,13.54,33.78,13,13.47,28.9,17.84,47.26,15.88,30-3.22,51.59-33.86,43-62.71-6.3-21.22-21.22-33.45-43.08-37.25C327.48,1188.77,298.14,1213,298.15,1244.53Z" transform="translate(0)"/></g></svg>