<svg width="2613" height="2547" viewBox="0 0 2613 2547" fill="none" xmlns="http://www.w3.org/2000/svg">
<path fill-rule="evenodd" clip-rule="evenodd" d="M462.719 0H2150.28C2406.14 0 2613 206.808 2613 462.596V2084.4C2613 2340.19 2406.14 2547 2150.28 2547H462.719C206.863 2547 0 2340.19 0 2084.4V462.596C0 206.808 206.863 0 462.719 0ZM587.925 1786.17V666.138C587.925 658.519 591.191 654.165 598.812 654.165C617.321 654.165 634.741 654.165 659.782 653.077C673.239 652.516 686.984 652.245 701.167 651.964L701.175 651.964C714.53 651.7 728.273 651.428 742.527 650.9C757.725 650.337 773.505 650.066 789.867 649.784L789.875 649.784L789.882 649.784L789.888 649.783H789.89H789.893H789.894C805.172 649.52 820.957 649.249 837.249 648.723C871 647.635 903.662 647.635 936.325 647.635C1025.6 647.635 1099.64 658.519 1160.61 681.377C1215.04 699.881 1265.13 730.358 1306.5 770.631C1341.34 805.462 1368.56 847.911 1385.98 894.715C1402.31 940.431 1411.02 987.235 1411.02 1036.22C1411.02 1129.82 1389.24 1207.1 1345.69 1268.06C1302.14 1329.01 1241.17 1374.73 1170.41 1400.85C1096.37 1428.06 1014.71 1437.86 925.438 1437.86C899.307 1437.86 881.887 1437.86 871 1436.77C860.113 1435.68 844.87 1435.68 824.184 1435.68V1785.08C825.272 1792.7 819.829 1799.23 812.207 1800.32H807.852H600.99C592.28 1800.32 587.925 1795.96 587.925 1786.17ZM825.273 1229.96V864.238C832.894 863.15 848.136 862.062 869.911 863.15C890.598 862.062 915.639 862.062 943.946 862.062C988.585 860.973 1032.13 867.504 1072.42 883.831C1103.99 895.804 1130.12 917.573 1148.63 945.873C1166.05 975.262 1174.76 1009 1173.67 1042.75C1173.67 1090.64 1162.78 1127.65 1139.92 1154.86C1115.97 1182.07 1085.48 1202.75 1050.64 1212.55C1010.36 1225.61 967.899 1232.14 925.438 1232.14H867.734C855.607 1232.14 842.542 1231.2 828.539 1230.2L828.535 1230.2L827.084 1230.09L825.273 1229.96ZM1985.88 1126.56C2022.9 1134.18 2057.74 1146.15 2090.4 1163.57C2094.75 1165.74 2100.2 1165.74 2110 1163.57C2113.26 1161.39 2115.44 1157.03 2115.44 1152.68V975.262C2115.44 970.908 2114.35 966.554 2113.26 962.2C2111.09 957.846 2106.73 953.492 2102.38 952.404C2072.98 940.431 2041.41 931.723 2008.74 927.369C1964.11 920.838 1918.38 917.573 1873.74 917.573C1796.44 917.573 1732.2 929.546 1681.03 955.669C1634.21 977.438 1593.93 1012.27 1566.71 1055.81C1542.76 1096.08 1529.69 1140.71 1529.69 1187.51C1528.6 1225.61 1537.31 1263.7 1554.73 1298.53C1575.42 1335.54 1603.73 1367.11 1637.48 1391.05C1685.38 1423.71 1736.56 1449.83 1792.08 1469.42C1845.43 1490.1 1881.36 1506.43 1898.78 1520.58C1916.2 1534.73 1924.91 1548.88 1924.91 1564.12C1924.91 1583.71 1912.93 1602.22 1895.51 1609.83C1875.92 1619.63 1846.52 1625.07 1805.15 1625.07C1761.6 1625.07 1718.05 1619.63 1676.67 1608.75C1628.77 1597.86 1584.13 1580.45 1541.67 1555.41C1538.4 1553.23 1535.14 1552.15 1531.87 1554.32C1528.6 1556.5 1527.52 1560.85 1527.52 1564.12V1753.51C1526.43 1762.22 1531.87 1769.84 1539.49 1774.19C1574.33 1790.52 1612.44 1802.49 1650.55 1809.02C1699.54 1818.82 1748.53 1823.17 1798.61 1823.17C1877 1823.17 1942.33 1811.2 1995.68 1788.34C2044.67 1768.75 2087.13 1735.01 2117.62 1691.47C2145.93 1649.02 2161.17 1597.86 2160.08 1546.7C2161.17 1507.52 2152.46 1469.42 2135.04 1434.59C2114.35 1397.58 2084.96 1367.11 2049.03 1344.25C1996.77 1311.6 1940.15 1284.38 1881.36 1264.79C1855.23 1253.91 1829.1 1241.93 1804.06 1228.87C1789.9 1221.25 1776.84 1211.46 1767.04 1199.48C1760.51 1190.78 1756.15 1180.98 1756.15 1171.18C1756.15 1161.39 1759.42 1150.5 1764.86 1141.8C1772.49 1130.91 1784.46 1123.29 1798.61 1120.03C1819.3 1114.58 1842.16 1111.32 1863.94 1112.41C1905.31 1112.41 1945.6 1117.85 1985.88 1126.56Z" fill="white"/>
</svg>
