<svg width="2613" height="2548" viewBox="0 0 2613 2548" fill="none" xmlns="http://www.w3.org/2000/svg">
<path fill-rule="evenodd" clip-rule="evenodd" d="M462.719 0H2150.28C2406.14 0 2613 206.889 2613 462.778V2085.22C2613 2341.11 2406.14 2548 2150.28 2548H462.719C206.863 2548 0 2341.11 0 2085.22V462.778C0 206.889 206.863 0 462.719 0ZM620.587 1784.69V664.222C620.587 656.6 623.854 652.245 631.475 652.245C649.984 652.245 667.404 652.244 692.445 651.156C705.902 650.595 719.647 650.323 733.83 650.042C747.187 649.778 760.932 649.506 775.19 648.978C790.394 648.415 806.181 648.143 822.551 647.861C837.83 647.598 853.617 647.326 869.911 646.8C903.663 645.711 936.325 645.711 968.987 645.711C1058.26 645.711 1132.3 656.6 1193.27 679.467C1247.71 697.978 1297.79 728.467 1339.16 768.756C1374 803.6 1401.22 846.067 1418.64 892.889C1434.97 938.622 1443.68 985.444 1443.68 1034.44C1443.68 1128.09 1421.91 1205.4 1378.36 1266.38C1334.81 1327.36 1273.84 1373.09 1203.07 1399.22C1129.03 1426.44 1047.38 1436.24 958.1 1436.24H958.091C931.966 1436.24 914.549 1436.24 903.662 1435.16C892.775 1434.07 877.532 1434.07 856.846 1434.07V1783.6C857.935 1791.22 852.491 1797.76 844.87 1798.84H633.652C624.942 1798.84 620.587 1794.49 620.587 1784.69ZM857.935 1229.36V863.489C865.556 862.4 880.799 861.311 902.574 862.4C923.26 861.311 948.301 861.311 976.609 861.311C1021.25 860.222 1064.8 866.756 1105.08 883.089C1136.65 895.067 1162.78 916.845 1181.29 945.156C1198.71 974.556 1207.42 1008.31 1206.33 1042.07C1206.33 1089.98 1195.45 1127 1172.58 1154.22C1148.63 1181.44 1118.15 1202.13 1083.31 1211.93C1043.02 1225 1000.56 1231.53 958.1 1231.53H900.396C888.269 1231.53 875.204 1230.6 861.201 1229.59C860.118 1229.51 859.029 1229.43 857.935 1229.36ZM1790.99 927.733H1600.46C1599.37 926.644 1597.2 926.644 1597.2 927.733C1591.75 928.822 1588.49 934.267 1589.57 939.711L1589.84 942.716L1589.84 942.719C1591.92 966.678 1593.93 989.715 1593.93 1013.76C1594.47 1027.91 1594.75 1042.07 1595.02 1056.22C1595.29 1070.38 1595.56 1084.53 1596.11 1098.69C1597.2 1127 1597.2 1154.22 1597.2 1180.35V1180.36V1787.96C1598.28 1796.67 1605.91 1802.11 1614.62 1801.02H1829.1C1838.9 1801.02 1843.25 1796.67 1843.25 1785.78V1230.44C1858.5 1213.02 1878.09 1199.96 1898.78 1190.16C1928.18 1177.09 1958.66 1167.29 1990.24 1160.76C2028.34 1152.04 2068.63 1148.78 2107.82 1149.87C2119.8 1149.87 2125.24 1146.6 2125.24 1137.89V921.2C2124.15 913.578 2117.62 908.133 2110 909.222C2052.29 909.222 1994.59 923.378 1944.51 951.689C1899.87 975.644 1860.67 1007.22 1828.01 1045.33C1828.01 1031.18 1826.92 1018.11 1825.83 1006.13C1824.74 995.244 1822.57 983.267 1820.39 972.378C1819.3 962.578 1817.12 953.867 1813.86 945.156C1810.59 935.356 1801.88 927.733 1790.99 927.733Z" fill="white"/>
</svg>
