<svg width="2500" height="2486" viewBox="0 0 2500 2486" fill="none" xmlns="http://www.w3.org/2000/svg">
<path d="M646.785 1202.76C651.888 1179.84 657.96 1157.18 665.001 1134.77C672.042 1112.4 680.024 1090.33 688.918 1068.61C697.819 1046.91 707.644 1025.59 718.365 1004.73C729.083 983.832 740.685 963.45 753.142 943.552C765.144 924.453 777.829 905.781 791.17 887.594C804.538 869.428 818.573 851.761 833.245 834.63C847.898 817.497 863.206 800.906 879.112 784.886C894.995 768.879 911.474 753.475 928.514 738.706C915.458 750.023 902.744 761.71 890.372 773.768C878.029 785.827 865.999 798.255 854.34 810.998C842.681 823.74 831.421 836.824 820.503 850.251C809.614 863.649 799.095 877.361 789.003 891.357C796.159 881.38 803.542 871.574 811.21 861.967C818.878 852.36 826.774 842.953 834.927 833.746C843.052 824.538 851.432 815.559 860.041 806.807C868.65 798.027 877.487 789.504 886.552 781.18C895.703 772.828 905.053 764.675 914.631 756.807C924.181 748.911 933.958 741.271 943.907 733.888C953.856 726.505 964.004 719.378 974.323 712.508C984.643 705.638 995.133 699.025 1005.79 692.696C1002.03 696.431 998.212 700.108 994.335 703.728C990.458 707.349 986.524 710.912 982.562 714.418C978.599 717.924 974.58 721.374 970.503 724.794C966.456 728.187 962.322 731.522 958.16 734.829C940.8 749.738 925.977 764.646 923.668 773.882C900.723 794.617 878.786 816.44 857.932 839.276C837.065 862.081 817.282 885.884 798.667 910.599C780.082 935.312 762.665 960.882 746.472 987.224C730.309 1013.59 715.4 1040.7 701.802 1068.5C688.148 1096.37 675.947 1124.97 665.2 1154.1C654.482 1183.23 645.246 1212.91 637.549 1242.98C622.168 1303.2 612.979 1364.82 610.126 1426.91C607.475 1416.64 605.536 1406.21 604.339 1395.66C603.142 1385.12 602.686 1374.51 602.999 1363.91C603.567 1342.68 607.118 1321.63 613.547 1301.39C624.066 1266.04 638.832 1236.08 646.785 1202.76ZM1258.5 585.712C1235.38 593.009 1212.52 601.091 1189.95 609.942C1195.45 607.405 1201.03 604.982 1206.65 602.702C1212.27 600.421 1217.94 598.283 1223.67 596.259C1229.4 594.235 1235.16 592.354 1240.97 590.587C1246.79 588.819 1252.63 587.194 1258.5 585.712ZM1547.3 2206.98C1572.64 2204.22 1597.84 2200.34 1621.82 2196.46C1615.72 2197.92 1609.56 2199.2 1603.4 2200.37C1597.22 2201.51 1591.03 2202.54 1584.79 2203.42C1578.57 2204.27 1572.33 2205.02 1566.09 2205.61C1559.84 2206.21 1553.57 2206.67 1547.3 2206.98V2206.98ZM685.924 1522.86L697.042 1564.25C701.033 1591.27 706.335 1618.1 712.948 1644.64C719.533 1671.15 727.373 1697.35 736.495 1723.12C754.709 1774.69 777.859 1824.39 805.623 1871.52C797.423 1858.33 789.534 1844.95 781.962 1831.38C774.408 1817.81 767.139 1804.07 760.212 1790.16C753.313 1776.25 746.7 1762.2 740.457 1747.97C734.186 1733.78 728.256 1719.41 722.669 1704.9C717.082 1690.39 712.122 1675.65 707.76 1660.72C703.427 1645.78 699.721 1630.67 696.643 1615.45C693.564 1600.2 691.113 1584.83 689.345 1569.38C687.549 1553.93 686.409 1538.39 685.924 1522.86V1522.86ZM703.285 1406.95C703.427 1380.67 705.28 1354.41 708.787 1328.39C712.293 1302.33 717.452 1276.54 724.265 1251.16C731.05 1225.77 739.488 1200.85 749.465 1176.53C759.442 1152.25 770.987 1128.59 784.015 1105.75C771.615 1128.87 760.554 1152.68 750.89 1177.05C741.255 1201.45 733.017 1226.36 726.232 1251.68C719.419 1277.02 714.117 1302.7 710.269 1328.64C706.449 1354.59 704.111 1380.73 703.285 1406.95V1406.95ZM2073.76 1753.87C2071.68 1753.13 2071.08 1750.82 2071.16 1748.06C2071.36 1747.49 2071.56 1746.86 2071.7 1746.26C2071.85 1745.64 2071.99 1745.04 2072.07 1744.41C2072.16 1743.78 2072.22 1743.16 2072.22 1742.5C2072.25 1741.87 2072.25 1741.25 2072.19 1740.62C2077.09 1733.38 2081.88 1726.05 2086.53 1718.61C2091.15 1711.2 2095.65 1703.67 2100.01 1696.09C2104.34 1688.51 2108.56 1680.81 2112.61 1673.09C2116.69 1665.33 2120.59 1657.49 2124.36 1649.6C2124.16 1651.79 2123.9 1653.96 2123.59 1656.13C2123.3 1658.32 2122.96 1660.49 2122.59 1662.65C2122.22 1664.82 2121.82 1666.96 2121.36 1669.12C2120.91 1671.26 2120.42 1673.4 2119.88 1675.54C2118.11 1678.76 2116.29 1681.95 2114.38 1685.09C2110.58 1691.39 2106.51 1697.52 2102.18 1703.48C2100.01 1706.47 2097.79 1709.4 2095.51 1712.28C2093.26 1715.48 2091.09 1718.73 2089.04 1722.03C2086.98 1725.37 2085.07 1728.76 2083.25 1732.21C2081.45 1735.69 2079.77 1739.19 2078.2 1742.79C2076.64 1746.35 2075.21 1750 2073.9 1753.67L2073.76 1753.87ZM1519.37 2208.69L1516.69 2209.83C1507.96 2210.43 1499.3 2211 1490.74 2211.32L1487.61 2210.57C1498.18 2209.83 1508.7 2209.15 1519.37 2208.69V2208.69ZM2048.87 1790.93C2047.96 1790.42 2047.05 1789.99 2046.08 1789.59C2045.14 1789.22 2044.14 1788.91 2043.14 1788.68C2042.14 1788.45 2041.12 1788.28 2040.09 1788.2C2039.06 1788.11 2038.04 1788.11 2037.01 1788.17C2049.3 1773.26 2061.01 1757.32 2071.96 1741.13L2071.7 1742.87C2071.62 1743.44 2071.53 1744.01 2071.48 1744.58C2071.39 1745.18 2071.33 1745.75 2071.28 1746.32C2071.22 1746.92 2071.19 1747.49 2071.16 1748.06C2067.2 1760.89 2052.75 1775.97 2048.79 1790.93H2048.87ZM1683.9 2018.98C1672.44 2022.63 1664.15 2033.21 1659.02 2036.71C1626.98 2038.88 1595.36 2039.02 1558.85 2038.74C1553.34 2041.42 1541.49 2042.39 1530.31 2047.01C1523.44 2043.87 1516.23 2041.33 1508.62 2038.74C1529.2 2038.97 1549.81 2038.23 1570.31 2036.51C1590.83 2034.8 1611.27 2032.12 1631.54 2028.5C1651.81 2024.88 1671.9 2020.32 1691.74 2014.82C1711.58 2009.32 1731.14 2002.91 1750.38 1995.58C1745.05 1998 1739.66 2000.34 1734.25 2002.54C1728.8 2004.76 1723.33 2006.81 1717.8 2008.78C1712.27 2010.72 1706.68 2012.57 1701.06 2014.25C1695.48 2015.96 1689.8 2017.53 1684.13 2018.98" fill="white"/>
<path d="M1315.6 710.285C1376.49 690.616 1446.1 684.572 1513.83 687.195C1581.59 689.789 1647.99 699.709 1711.18 706.18C1642.48 678.9 1554.31 663.563 1480.14 659.601C1405.99 655.638 1346.9 658.546 1331.48 643.637C1316.06 628.728 1369.34 613.819 1443.25 610.997C1453.12 610.712 1462.98 610.627 1472.81 610.741C1482.68 610.855 1492.51 611.168 1502.37 611.653C1512.21 612.138 1522.04 612.822 1531.85 613.706C1541.66 614.561 1551.46 615.644 1561.24 616.87C1600.81 621.659 1638.44 629.099 1668.94 634.914C1653.52 627.987 1653.52 627.987 1637.87 621.516C1653.57 627.987 1668.94 634.686 1684.13 633.888C1669.34 627.291 1654.28 621.328 1638.98 616.015C1633.87 614.247 1628.77 612.537 1623.61 610.912C1601.72 603.472 1581.14 596.83 1572.13 590.416C1582.48 588.249 1592.83 586.539 1603.34 584.829C1561.33 566.328 1496.7 555.011 1430.88 553.158C1365.09 551.277 1298.53 557.177 1249.78 557.919C1280.05 554.469 1310.41 552.132 1340.86 550.934C1371.27 549.709 1401.75 549.652 1432.19 550.706C1462.61 551.761 1493 553.956 1523.27 557.263C1553.54 560.598 1583.67 565.045 1613.64 570.575C1645.73 576.676 1677.55 584.372 1708.9 593.609C1740.26 602.816 1771.13 613.62 1801.44 625.878C1831.71 638.164 1861.38 651.961 1890.32 667.155C1919.25 682.367 1947.41 699.006 1974.7 717.013C2003.12 735.77 2030.46 756.152 2056.54 778.045C2082.62 799.938 2107.42 823.284 2130.85 848.028C2154.26 872.743 2176.24 898.798 2196.68 926.05C2217.09 953.302 2235.96 981.694 2253.15 1011.08C2270.22 1040.39 2285.53 1070.69 2298.99 1101.82C2312.44 1132.95 2323.99 1164.85 2333.59 1197.37C2343.23 1229.9 2350.87 1262.97 2356.51 1296.4C2362.16 1329.84 2365.8 1363.59 2367.4 1397.46C2372.45 1469.55 2369.57 1541.93 2358.82 1613.37C2348.04 1684.81 2329.46 1754.85 2303.4 1822.23C2277.35 1889.59 2243.94 1953.9 2203.83 2013.97C2163.72 2074.03 2117.11 2129.53 2064.89 2179.42C2057.05 2185.95 2049.01 2192.27 2040.83 2198.37C2032.65 2204.5 2024.33 2210.4 2015.83 2216.05C1998.84 2227.41 1981.26 2237.85 1963.15 2247.32C1952.06 2253.28 1940.86 2258.98 1929.51 2264.45C1918.17 2269.9 1906.71 2275.09 1895.14 2280.02C1883.53 2284.95 1871.85 2289.59 1860.04 2293.98C1848.27 2298.37 1836.38 2302.51 1824.38 2306.36C1674.15 2366.59 1507.14 2387.77 1342.88 2372.92C1168.19 2350.57 1004.45 2271.78 873.353 2154.45C742.281 2037.09 641.055 1880.56 584.954 1702.45C573.381 1667.04 572.127 1621.78 579.738 1608.44C583.444 1601.74 589.031 1602.79 596.557 1615.9C604.082 1629.02 613.774 1654.67 629.282 1695.81C642.68 1729.56 657.788 1762.6 674.493 1794.84C691.169 1827.05 709.47 1858.44 729.311 1888.85C749.148 1919.24 770.478 1948.63 793.222 1976.91C815.999 2005.19 840.143 2032.32 865.6 2058.18C855.765 2056.04 839.744 2041.42 823.724 2024.12C820.132 2019.98 816.512 2015.88 812.806 2011.83C805.409 2003.74 797.805 1995.84 790.001 1988.14C786.095 1984.32 782.133 1980.53 778.114 1976.79C785.183 1987.46 792.538 1997.97 800.149 2008.27C807.76 2018.58 815.656 2028.68 823.781 2038.6C831.905 2048.52 840.257 2058.21 848.895 2067.7C857.504 2077.17 866.369 2086.43 875.434 2095.47C884.471 2104.42 893.707 2113.14 903.171 2121.61C912.635 2130.1 922.327 2138.34 932.219 2146.32C942.082 2154.3 952.173 2162.03 962.464 2169.5C972.755 2176.97 983.217 2184.18 993.878 2191.11C963.892 2171.59 935.071 2150.35 907.561 2127.48C893.792 2116.05 880.366 2104.25 867.31 2092.05C854.226 2079.84 841.512 2067.25 829.169 2054.3C845.218 2071.21 861.922 2087.51 879.197 2103.16C896.444 2118.81 914.289 2133.84 932.675 2148.17C951.062 2162.51 969.961 2176.17 989.346 2189.11C1008.72 2202.08 1028.57 2214.31 1048.87 2225.77C1091.2 2249.71 1135.5 2270.01 1181.28 2286.43C1204.14 2294.64 1227.35 2301.91 1250.83 2308.15C1274.32 2314.4 1298.07 2319.64 1322.02 2323.89C1356.96 2330.59 1388.72 2344.07 1425.75 2353.11C1436.35 2355.9 1447.13 2357.98 1457.99 2359.29C1468.88 2360.6 1479.83 2361.17 1490.77 2360.97C1501.75 2360.8 1512.67 2359.86 1523.5 2358.15C1534.3 2356.47 1545.02 2354.02 1555.51 2350.86C1523.38 2350.91 1491.26 2349.32 1459.3 2346.09C1427.34 2342.84 1395.56 2337.97 1364.09 2331.5C1332.63 2324.99 1301.51 2316.89 1270.87 2307.21C1240.23 2297.52 1210.13 2286.26 1180.62 2273.49C1151.26 2260.75 1122.53 2246.64 1094.51 2231.16C1066.48 2215.71 1039.2 2198.89 1012.81 2180.81C986.388 2162.74 960.845 2143.42 936.267 2122.92C911.694 2102.39 888.12 2080.73 865.6 2057.98C865.742 2057.98 865.856 2058.01 865.97 2058.01H866.74C866.854 2058.01 866.968 2057.98 867.11 2057.98C847.726 2038.74 829.283 2018.61 811.808 1997.66C794.334 1976.7 777.849 1954.94 762.407 1932.44C746.962 1909.93 732.569 1886.72 719.276 1862.88C706.021 1839.02 693.849 1814.56 682.874 1789.59C697.783 1820.24 715.97 1850.14 729.51 1877.05C657.674 1733.92 618.763 1579.59 620.131 1423.57C622.497 1451.22 625.975 1478.76 630.536 1506.15C635.126 1533.52 640.798 1560.72 647.526 1587.63C654.282 1614.56 662.121 1641.22 670.987 1667.5C679.881 1693.81 689.801 1719.72 700.747 1745.24C722.967 1797.14 749.874 1846.91 781.135 1893.93C796.757 1917.42 813.433 1940.19 831.107 1962.17C848.78 1984.17 867.453 2005.34 887.065 2025.63C946.162 2086.82 1013.91 2139.02 1088.15 2180.56C1112.86 2194.38 1138.23 2206.98 1164.18 2218.33C1214.81 2240.39 1267.59 2257.15 1321.67 2268.33C1348.7 2273.94 1376.01 2278.14 1403.46 2280.9C1430.94 2283.69 1458.5 2285.03 1486.13 2284.98C1425.89 2274.46 1356.65 2267.3 1290.26 2251.11C1223.87 2234.95 1161.41 2210.2 1120.56 2176.14C1164.29 2198.71 1209.83 2217.58 1256.71 2232.55C1303.58 2247.54 1351.63 2258.55 1400.35 2265.48C1449.07 2272.43 1498.3 2275.26 1547.5 2273.97C1596.67 2272.66 1645.68 2267.25 1693.97 2257.75L1651.58 2270.5C1667.6 2269.24 1683.56 2267.3 1699.44 2264.68C1715.31 2262.09 1731.07 2258.84 1746.67 2254.93C1762.27 2251 1777.72 2246.44 1792.94 2241.25C1808.13 2236.03 1823.16 2230.22 1837.87 2223.77C1852.66 2217.3 1867.28 2210.49 1881.74 2203.36C1896.19 2196.21 1910.47 2188.71 1924.55 2180.87C1938.66 2173.03 1952.55 2164.88 1966.26 2156.36C1979.97 2147.86 1993.48 2139.05 2006.77 2129.9C2016.15 2123.72 2025.47 2117.44 2034.7 2110.83L2006.77 2129.9C1983.05 2145.44 1958.59 2159.81 1933.51 2172.98C1908.39 2186.15 1882.68 2198.09 1856.42 2208.78C1830.17 2219.47 1803.43 2228.88 1776.26 2236.97C1749.1 2245.1 1721.56 2251.88 1693.74 2257.3C1742.48 2242.39 1793.77 2226.37 1853.74 2202.59C1818.94 2210.03 1771.25 2224.2 1722.5 2233.52C1706.85 2237.54 1691.03 2241.11 1675.15 2244.18C1659.27 2247.26 1643.28 2249.86 1627.23 2252C1611.21 2254.1 1595.11 2255.76 1578.94 2256.93C1562.81 2258.07 1546.65 2258.75 1530.45 2258.95C1554.26 2258.07 1577.97 2255.93 1601.52 2252.51C1648.68 2245.67 1694.97 2233.81 1739.6 2217.13C1761.9 2208.78 1783.73 2199.26 1805.03 2188.57C1679.51 2229.22 1542.23 2246.27 1412.32 2225.85C1430.17 2227.65 1448.04 2228.85 1465.97 2229.45C1483.87 2230.05 1501.8 2230.02 1519.71 2229.39C1537.64 2228.76 1555.51 2227.54 1573.36 2225.71C1591.17 2223.89 1608.93 2221.44 1626.61 2218.39C1656.82 2214.85 1686.84 2209.58 1716.49 2202.56C1775.79 2188.55 1833.29 2167.76 1887.84 2140.59C1915.09 2126.99 1941.52 2111.86 1967.03 2095.24L1955.63 2103.68C1963.52 2098.52 1971.13 2092.93 1978.74 2087.48C1988.78 2080.64 1998.67 2073.55 2008.39 2066.22C2018.11 2058.92 2027.66 2051.37 2037.04 2043.61C2046.39 2035.83 2055.6 2027.85 2064.58 2019.67C2073.56 2011.46 2082.37 2003.05 2090.97 1994.44C2113.19 1970.72 2132.86 1944.74 2149.67 1916.93C2155.28 1907.67 2160.56 1898.23 2165.49 1888.6L2177.49 1870.86C2172.73 1883.98 2171.85 1891.65 2188.15 1870.86C2197.05 1859.15 2205.46 1847.06 2213.35 1834.66C2221.25 1822.26 2228.63 1809.55 2235.5 1796.52C2242.37 1783.52 2248.7 1770.24 2254.49 1756.73C2260.25 1743.21 2265.49 1729.44 2270.14 1715.51C2290.86 1657.95 2306.05 1597.18 2322.3 1533.66C2330.71 1500.2 2332.74 1453.45 2328.57 1403.82C2329.12 1401.59 2329.49 1399.31 2329.63 1397.03C2329.8 1394.75 2329.77 1392.44 2329.54 1390.16C2329.32 1387.88 2328.89 1385.63 2328.29 1383.41C2327.66 1381.21 2326.86 1379.04 2325.87 1376.96C2324.7 1366.3 2323.19 1355.58 2321.56 1344.92C2320.94 1338.39 2320.17 1331.89 2319.25 1325.4C2318.34 1318.9 2317.31 1312.43 2316.12 1305.98C2314.92 1299.54 2313.58 1293.13 2312.1 1286.74C2310.62 1280.36 2309.02 1274 2307.25 1267.7C2312.38 1292.73 2317.54 1318.67 2321.56 1344.92L2324.53 1374.28C2323.3 1372.17 2322.19 1370.01 2321.19 1367.76C2320.19 1365.53 2319.31 1363.25 2318.57 1360.91C2317.83 1358.58 2317.2 1356.21 2316.72 1353.82C2316.23 1351.42 2315.89 1349 2315.66 1346.55C2317.46 1369.32 2318.28 1392.13 2318.14 1414.96C2318 1437.77 2316.89 1460.6 2314.83 1483.32C2312.78 1506.04 2309.73 1528.67 2305.77 1551.17C2301.78 1573.63 2296.88 1595.92 2291 1617.98C2285.02 1640.42 2278.15 1662.6 2270.36 1684.46C2262.61 1706.35 2253.95 1727.91 2244.45 1749.09C2234.96 1770.27 2224.61 1791.05 2213.44 1811.4C2202.26 1831.73 2190.26 1851.62 2177.49 1871.01C2181.23 1860.12 2187.33 1845.29 2189.04 1838.71C2181.97 1855.73 2174.16 1872.26 2165.49 1888.74C2156.88 1901.17 2147.96 1913.37 2138.72 1925.34C2129.49 1937.31 2119.94 1949.06 2110.13 1960.55C2100.3 1972.03 2090.18 1983.29 2079.8 1994.27C2069.42 2005.27 2058.73 2015.99 2047.82 2026.42C2050.67 2023.35 2053.4 2020.18 2056.05 2016.96C2061.36 2010.48 2066.28 2003.69 2070.79 1996.63C2073.04 1993.13 2075.21 1989.54 2077.26 1985.89C2062.06 2000.94 2046.31 2015.42 2030.03 2029.3C2013.74 2043.16 1996.95 2056.42 1979.69 2069.04C1962.41 2081.64 1944.65 2093.59 1926.49 2104.87C1908.31 2116.15 1889.71 2126.75 1870.73 2136.63C1851.63 2146.55 1832.14 2155.73 1812.3 2164.14C1792.48 2172.55 1772.33 2180.19 1751.92 2187.06C1731.51 2193.93 1710.81 2200 1689.95 2205.24C1669.05 2210.52 1647.99 2214.97 1626.75 2218.61C1587.1 2223.23 1547.19 2224.89 1507.31 2223.57C1467.43 2222.26 1427.69 2218.02 1388.43 2210.8C1349.18 2203.62 1310.52 2193.53 1272.76 2180.62C1234.99 2167.7 1198.24 2151.99 1162.81 2133.64C1181.71 2145.61 1201.21 2156.56 1221.22 2166.48C1241.26 2176.4 1261.81 2185.23 1282.76 2192.99C1303.74 2200.71 1325.09 2207.35 1346.76 2212.86C1368.42 2218.33 1390.37 2222.66 1412.49 2225.85C1381.82 2222.79 1351.36 2217.89 1321.27 2211.2C1291.18 2204.54 1261.51 2196.09 1232.42 2185.89C1203.32 2175.72 1174.86 2163.82 1147.19 2150.26C1119.5 2136.71 1092.65 2121.53 1066.77 2104.79C1040.93 2088.17 1016.15 2069.97 992.567 2050.28C968.992 2030.59 946.672 2009.46 925.72 1987C904.767 1964.54 885.24 1940.79 867.224 1915.9C849.208 1891.02 832.76 1865.05 817.994 1838.14C851.09 1869.67 894.078 1911.63 923.952 1920.58C928.143 1914.45 885.44 1854.3 915.4 1885.46C971.957 1939.65 1021.53 1982.75 1066.97 2012.71C1112.44 2042.67 1153.71 2058.04 1190.4 2051.48C1197.84 2048.57 1170.42 2019.21 1151.35 1990.96C1132.28 1962.68 1119.96 1937.11 1141.94 1947.58C1155.51 1955.41 1169.31 1962.88 1183.33 1969.92C1197.33 1976.94 1211.55 1983.55 1225.95 1989.74C1254.77 2002.09 1284.31 2012.7 1314.4 2021.52C1319.73 2023.57 1325.09 2025.54 1330.51 2027.39C1335.9 2029.25 1341.34 2030.99 1346.82 2032.64C1352.29 2034.26 1357.79 2035.8 1363.32 2037.23C1368.85 2038.65 1374.41 2039.99 1380 2041.19C1382.73 2042.67 1388.12 2041.19 1394.91 2039.48C1476.12 2053.19 1554.31 2047.92 1597.47 2044.04C1613.55 2042.9 1629.51 2040.73 1645.39 2038.28C1647.33 2038.37 1649.3 2038.51 1651.26 2038.74C1653.2 2038.97 1655.14 2039.28 1657.08 2039.65C1658.99 2040.02 1660.9 2040.48 1662.81 2041.02C1664.69 2041.56 1666.57 2042.16 1668.4 2042.84C1677.57 2037.26 1686.81 2032.18 1696.05 2027.93C1706.45 2025.28 1716.77 2022.35 1727.01 2019.15C1737.24 2015.93 1747.39 2012.46 1757.45 2008.69C1767.48 2004.9 1777.43 2000.88 1787.24 1996.55C1797.07 1992.24 1806.77 1987.66 1816.34 1982.84C1822.05 1980.87 1827.72 1978.85 1833.33 1976.71C1838.98 1974.57 1844.57 1972.35 1850.12 1970.01C1855.68 1967.7 1861.21 1965.28 1866.69 1962.77C1872.16 1960.26 1877.58 1957.64 1882.96 1954.93C1880.88 1952.85 1875.52 1951.97 1877.69 1947.03C1888.78 1939.65 1899.64 1931.87 1910.22 1923.74C1920.79 1915.62 1931.11 1907.18 1941.14 1898.37C1951.18 1889.56 1960.9 1880.44 1970.34 1871.01C1979.77 1861.57 1988.89 1851.82 1997.67 1841.79C2001.61 1838.4 2005.6 1835.09 2009.65 1831.84C2013.69 1828.59 2017.8 1825.4 2021.96 1822.29C2026.12 1819.18 2030.34 1816.16 2034.59 1813.2C2038.86 1810.23 2043.17 1807.32 2047.53 1804.5C2054.37 1773.06 2078 1731.61 2099.7 1683.52C2121.39 1635.43 2140.32 1581.53 2146.33 1535.09H2145.36C2147.53 1523.43 2149.36 1511.71 2150.87 1499.94C2152.38 1488.17 2153.57 1476.37 2154.46 1464.56C2155.34 1452.73 2155.88 1440.87 2156.14 1429.02C2156.37 1417.16 2156.28 1405.3 2155.88 1393.44C2157.96 1385.46 2160.36 1377.7 2163.32 1370.35C2158.19 1358.78 2156.57 1346.35 2153.66 1340.53C2152.01 1302.05 2150.15 1268.95 2146.19 1235.49C2142.4 1230.27 2131.28 1221.83 2126.98 1209.97C2125.15 1204.1 2123.22 1198.29 2121.16 1192.5C2119.08 1186.71 2116.92 1180.95 2114.61 1175.25C2112.3 1169.55 2109.85 1163.91 2107.31 1158.32C2104.77 1152.73 2102.09 1147.17 2099.33 1141.7C2096.48 1135.2 2093.51 1128.73 2090.49 1122.32C2087.44 1115.91 2084.3 1109.54 2081.08 1103.22C2077.86 1096.92 2074.55 1090.62 2071.13 1084.4C2067.74 1078.19 2064.24 1072 2060.64 1065.87C2048.42 1044.96 2035.14 1024.69 2020.85 1005.13C2006.56 985.559 1991.28 966.739 1975.07 948.741C1958.85 930.725 1941.72 913.564 1923.76 897.315C1905.8 881.067 1887.01 865.73 1867.46 851.42C1867.22 849.371 1867.27 847.299 1867.6 845.263C1867.77 844.236 1868.03 843.239 1868.34 842.27C1868.65 841.3 1869.02 840.331 1869.48 839.419C1853.83 835.742 1837.3 821.602 1823.73 817.925C1826.63 817.925 1828.86 817.269 1829.46 815.188C1825.58 813.934 1821.73 812.537 1817.91 811.055C1814.12 809.573 1810.36 807.948 1806.68 806.209C1802.97 804.47 1799.33 802.646 1795.73 800.679C1792.17 798.712 1788.64 796.631 1785.19 794.464C1782.05 792.212 1778.89 790.046 1775.67 787.936C1772.44 785.827 1769.17 783.774 1765.86 781.808C1762.55 779.841 1759.19 777.931 1755.82 776.106C1752.43 774.282 1749.01 772.514 1745.53 770.833C1743.31 770.376 1741.06 769.949 1738.81 769.578C1736.53 769.208 1734.27 768.866 1731.99 768.552C1729.74 768.267 1727.46 768.01 1725.18 767.782C1722.9 767.554 1720.62 767.383 1718.34 767.241C1714.18 765.445 1709.99 763.963 1705.82 762.252C1666.31 731.693 1617.8 727.959 1566.23 723.255C1553.2 721.032 1540.09 719.179 1526.95 717.697C1513.81 716.214 1500.61 715.103 1487.41 714.361C1474.21 713.592 1460.98 713.221 1447.76 713.221C1434.53 713.221 1421.3 713.592 1408.08 714.304C1365.97 717.44 1347.56 709.914 1316.43 710.228" fill="white"/>
<path d="M2129.57 1638.11C2134.34 1627.57 2138.83 1616.92 2143.06 1606.15C2147.25 1595.38 2151.18 1584.49 2154.86 1573.54C2162.14 1551.59 2168.31 1529.28 2173.33 1506.7C2166.63 1555.73 2161.19 1602.02 2129.57 1638.11ZM1122.41 1918.7C1119.99 1914.39 1117.51 1910.09 1114.92 1905.84C1112.35 1901.59 1109.7 1897.4 1106.96 1893.27C1104.23 1889.11 1101.43 1885.03 1098.55 1880.98C1095.67 1876.94 1092.74 1872.92 1089.72 1868.98C1109.47 1887.85 1130.48 1905.39 1152.57 1921.46C1174.69 1937.51 1197.84 1952.08 1221.9 1965.02C1245.96 1977.99 1270.87 1989.31 1296.44 1998.94C1322.02 2008.55 1348.21 2016.45 1374.84 2022.55V2023.46C1330.94 2015.99 1280.05 1995.35 1235.7 1972.6C1191.37 1949.88 1152.46 1926.08 1122.41 1918.7V1918.7ZM2070.85 1748.06C2070.88 1747.49 2070.93 1746.92 2070.99 1746.32L2071.16 1744.58C2071.25 1744.01 2071.3 1743.44 2071.39 1742.87C2071.48 1742.3 2071.56 1741.7 2071.68 1741.13C2071.76 1743.03 2071.59 1744.93 2071.16 1746.78C2071.02 1747.4 2070.82 1748 2070.62 1748.6L2070.85 1748.06ZM848.98 1845.12L842.053 1833.72C851.757 1847.7 861.862 1861.4 872.356 1874.8C877.572 1881.5 882.903 1888.11 888.348 1894.67C893.764 1901.22 899.266 1907.69 904.881 1914.08C899.636 1908.84 894.534 1903.48 889.574 1897.97C884.613 1892.47 879.796 1886.83 875.149 1881.07C870.483 1875.32 865.968 1869.44 861.609 1863.45C857.247 1857.45 853.036 1851.34 848.98 1845.12V1845.12ZM738.974 1501.17C736.836 1484.06 735.269 1466.9 734.299 1449.71C733.302 1432.49 732.903 1415.28 733.074 1398.03C733.273 1380.81 734.014 1363.59 735.383 1346.4C736.722 1329.22 738.632 1312.08 741.141 1295.04C745.217 1273.94 750.377 1253.07 756.648 1232.52C762.891 1211.97 770.246 1191.76 778.655 1171.97C787.036 1152.19 796.5 1132.89 806.934 1114.11C817.367 1095.32 828.798 1077.1 841.17 1059.54C821.988 1092.75 805.304 1127.34 791.255 1163.02C777.176 1198.7 765.77 1235.37 757.133 1272.74C748.495 1310.09 742.623 1348.06 739.601 1386.28C736.556 1424.51 736.347 1462.91 738.974 1501.17V1501.17ZM986.951 1755.3C984.642 1750.03 982.447 1744.72 980.338 1739.39C978.228 1734.06 976.204 1728.67 974.266 1723.29C972.327 1717.87 970.503 1712.43 968.764 1706.95C967.025 1701.48 965.372 1695.98 963.833 1690.45C966.142 1695.55 968.508 1700.65 970.988 1705.7C973.439 1710.74 975.976 1715.76 978.57 1720.72C981.164 1725.71 983.844 1730.64 986.609 1735.52C989.346 1740.42 992.168 1745.27 995.047 1750.08C990.429 1748 989.089 1753.08 986.951 1755.01V1755.3ZM1048.58 2045.3L1032.02 2032.98C1047.53 2041.79 1063.26 2050.06 1079.28 2057.52C1072.95 2055.59 1058.84 2049.31 1048.58 2045.3ZM918.593 1525.4C920.389 1541.7 922.869 1557.92 926.062 1574.08C921.957 1564.99 917.624 1556.1 912.493 1547.17C913.262 1545.44 913.946 1543.7 914.574 1541.9C915.201 1540.13 915.771 1538.34 916.255 1536.51C916.74 1534.69 917.139 1532.84 917.481 1530.98C917.823 1529.13 918.108 1527.28 918.308 1525.4H918.593ZM927.173 1273.51C928.57 1268.24 930.053 1263.02 931.649 1257.84C933.245 1252.65 934.956 1247.49 936.752 1242.36C938.547 1237.25 940.429 1232.15 942.424 1227.11C944.42 1222.06 946.529 1217.04 948.696 1212.08C946.643 1218.27 944.676 1224.48 942.795 1230.75C940.913 1237 939.118 1243.27 937.436 1249.57C935.725 1255.87 934.129 1262.2 932.618 1268.55C931.107 1274.91 929.682 1281.27 928.371 1287.65C926.945 1281.27 925.663 1276.02 927.173 1273.51" fill="white"/>
<path d="M1124.75 242.81C1141.43 250.079 1157.82 258.061 1173.84 266.727C1189.86 275.364 1205.51 284.714 1220.73 294.691C1235.95 304.697 1250.75 315.33 1265.09 326.562C1279.43 337.822 1293.25 349.652 1306.59 362.08C1319.36 374.053 1331.68 386.482 1343.54 399.338C1355.4 412.223 1366.77 425.536 1377.63 439.247C1388.49 452.959 1398.84 467.098 1408.67 481.579C1418.48 496.06 1427.77 510.912 1436.47 526.078C1429.74 514.504 1422.7 503.13 1415.32 491.955C1407.93 480.781 1400.21 469.835 1392.2 459.116C1384.19 448.398 1375.86 437.907 1367.23 427.674C1358.62 417.44 1349.7 407.434 1340.49 397.713C1347.04 404.64 1353.4 411.739 1359.59 418.979C1365.77 426.248 1371.76 433.66 1377.55 441.214C1383.36 448.768 1388.95 456.494 1394.36 464.333C1399.75 472.172 1404.97 480.182 1409.96 488.278C1414.95 496.488 1419.76 504.812 1424.32 513.25C1428.91 521.716 1433.3 530.268 1437.44 538.934C1441.6 547.571 1445.53 556.351 1449.27 565.217C1452.97 574.082 1456.48 583.033 1459.73 592.07C1457.45 588.649 1455.23 585.171 1453.03 581.694C1450.84 578.216 1448.7 574.681 1446.62 571.146C1444.54 567.583 1442.51 564.02 1440.54 560.399C1438.55 556.807 1436.64 553.159 1434.76 549.481C1426.04 534.572 1416.94 520.633 1410.01 517.497C1397.64 496.973 1384.3 477.018 1370.05 457.748C1355.76 438.48 1340.58 419.892 1324.55 402.046C1292.43 366.381 1256.99 333.851 1218.71 304.897C1199.51 290.367 1179.58 276.837 1158.99 264.361C1138.41 251.846 1117.2 240.444 1095.42 230.124C1073.67 219.805 1051.4 210.598 1028.71 202.559C1005.99 194.52 982.904 187.65 959.5 181.977C967.71 181.464 975.948 181.521 984.158 182.148C992.339 182.804 1000.49 184.03 1008.53 185.826C1016.54 187.593 1024.44 189.959 1032.13 192.867C1039.84 195.755 1047.32 199.185 1054.54 203.129C1079.94 216.413 1100.52 232.148 1124.75 243.095V242.81ZM1504.46 800.565C1502.29 781.409 1499.52 763.308 1496.19 744.721C1497.3 749.311 1498.33 753.9 1499.24 758.519C1500.15 763.165 1500.95 767.783 1501.63 772.458C1502.32 777.105 1502.92 781.78 1503.37 786.483C1503.86 791.158 1504.2 795.862 1504.46 800.565V800.565ZM226.915 780.297C225.29 799.967 224.463 819.722 223.865 838.821C223.665 833.918 223.551 829.043 223.58 824.14C223.666 809.466 224.781 794.816 226.915 780.297ZM875.235 225.506L842.139 227.815C820.959 226.875 799.75 226.96 778.57 228.043C757.39 229.155 736.295 231.265 715.314 234.4C694.334 237.508 673.553 241.641 652.971 246.772C632.389 251.903 612.093 258.004 592.11 265.102C603.37 260.797 614.715 256.778 626.175 253.015C637.635 249.252 649.18 245.774 660.782 242.553C672.412 239.361 684.1 236.424 695.873 233.745C707.618 231.094 719.448 228.728 731.306 226.618C743.165 224.509 755.138 222.912 767.139 221.801C779.14 220.689 791.17 220.09 803.228 220.005C815.286 219.919 827.316 220.347 839.346 221.287C851.347 222.2 863.319 223.654 875.235 225.592V225.506ZM960.84 255.923C1000.88 263.917 1039.72 277.034 1076.4 294.948C1094.73 303.899 1112.47 314.019 1129.48 325.25C1146.5 336.453 1162.81 348.768 1178.26 362.08C1162.49 349.196 1146.02 337.251 1128.88 326.276C1111.74 315.317 1093.98 305.352 1075.69 296.43C1057.42 287.508 1038.63 279.64 1019.45 272.884C1000.26 266.128 980.68 260.484 960.84 256.008V255.923ZM493.877 1248.31C494.761 1246.89 496.556 1246.8 498.637 1247.26C499.065 1247.49 499.464 1247.72 499.92 1247.92C500.348 1248.12 500.775 1248.29 501.232 1248.43C502.123 1248.77 503.051 1249 503.997 1249.11C508.786 1253.93 513.66 1258.63 518.62 1263.25C523.552 1267.87 528.598 1272.4 533.729 1276.85C538.86 1281.27 544.048 1285.6 549.322 1289.85C554.624 1294.1 559.983 1298.23 565.428 1302.28C562.147 1301.26 558.905 1300.12 555.707 1298.86C554.111 1298.23 552.543 1297.6 550.947 1296.92C549.379 1296.23 547.811 1295.55 546.272 1294.81C544.077 1293.01 541.91 1291.13 539.801 1289.22C537.691 1287.31 535.639 1285.34 533.615 1283.35C531.578 1281.35 529.592 1279.29 527.657 1277.19C525.712 1275.1 523.811 1272.97 521.956 1270.81C519.875 1268.64 517.708 1266.53 515.485 1264.51C513.261 1262.48 510.952 1260.52 508.586 1258.66C506.22 1256.78 503.769 1255.01 501.289 1253.3C498.809 1251.59 496.243 1249.97 493.649 1248.46L493.877 1248.31ZM230.05 758.462L229.537 756.295C230.421 749.568 231.162 742.869 232.274 736.312L233.243 734.003C232.274 742.184 231.248 750.337 230.05 758.462V758.462ZM469.276 1223.86C469.818 1223.26 470.302 1222.63 470.758 1221.98C471.626 1220.64 472.298 1219.19 472.754 1217.67C472.953 1216.93 473.124 1216.13 473.238 1215.36C482.902 1226.91 493.05 1237.71 503.769 1248.91C503.37 1248.74 502.942 1248.57 502.514 1248.43C502.087 1248.26 501.659 1248.12 501.232 1247.97C500.804 1247.86 500.376 1247.72 499.949 1247.6L498.637 1247.26C489.487 1242.33 480.165 1229.07 469.276 1223.86V1223.86ZM349.749 912.168C349.236 910.258 348.665 908.348 347.981 906.467C347.326 904.585 346.585 902.761 345.786 900.936C344.96 899.14 344.076 897.345 343.107 895.634C342.138 893.895 341.083 892.185 339.971 890.56C343.021 865.874 347.44 841.729 353.226 813.992C352.058 809.374 353.226 800.195 351.146 791.016C352.001 789.819 352.856 788.621 353.683 787.395C354.509 786.17 355.307 784.944 356.106 783.69C356.904 782.464 357.702 781.21 358.443 779.927C359.213 778.673 359.954 777.39 360.695 776.107C357.502 791.7 355.022 807.435 353.312 823.256C351.573 839.078 350.604 854.956 350.347 870.891C350.119 886.797 350.604 902.704 351.858 918.582C353.084 934.431 355.079 950.224 357.788 965.931C356.733 961.484 355.764 957.037 354.88 952.561C354.025 948.086 353.255 943.61 352.571 939.106C351.915 934.602 351.345 930.098 350.86 925.566C350.376 921.033 350.005 916.501 349.749 911.94" fill="white"/>
<path d="M1400.55 825.48C1401.8 838.393 1402.49 851.335 1402.6 864.334C1402.72 877.304 1402.29 890.275 1401.32 903.217C1400.32 916.13 1398.78 929.043 1396.7 941.843C1394.59 954.642 1391.97 967.356 1388.78 979.927C1376.86 1031.44 1359.42 1080.36 1345.11 1127.45C1376.03 1079.07 1400.78 1014.13 1414.72 958.604C1428.66 903.074 1435.3 857.236 1448.84 847.686C1462.41 838.136 1466.23 881.01 1457.14 937.738C1455.88 945.292 1454.51 952.818 1452.97 960.286C1451.43 967.783 1449.75 975.252 1447.93 982.664C1446.1 990.104 1444.11 997.487 1442 1004.84C1439.89 1012.2 1437.61 1019.49 1435.21 1026.73C1425.66 1056.58 1414.49 1083.78 1405.4 1106.15C1412.86 1095.49 1412.86 1095.49 1420.31 1084.46C1418.4 1086.91 1416.6 1089.45 1414.95 1092.1C1413.26 1094.75 1411.75 1097.46 1410.41 1100.28C1409.05 1103.07 1407.82 1105.95 1406.76 1108.89C1405.71 1111.83 1404.8 1114.82 1404.06 1117.84C1406.48 1114.42 1408.82 1110.94 1411.13 1107.46C1413.44 1103.96 1415.69 1100.42 1417.91 1096.86C1420.11 1093.3 1422.27 1089.71 1424.38 1086.08C1426.46 1082.46 1428.51 1078.82 1430.51 1075.14C1432.11 1071.92 1433.82 1068.75 1435.58 1065.65C1437.35 1062.54 1439.2 1059.46 1441.14 1056.44C1443.08 1053.45 1445.11 1050.48 1447.22 1047.57C1449.32 1044.67 1451.52 1041.84 1453.77 1039.05C1453.77 1047.17 1453.77 1055.38 1453.32 1063.65C1473.67 1034.35 1491.71 986.712 1503.03 936.911C1514.35 887.111 1519.56 835.542 1526.21 798.342C1524.35 821.888 1521.65 845.377 1518.05 868.724C1514.46 892.071 1509.99 915.303 1504.68 938.308C1499.35 961.341 1493.2 984.146 1486.18 1006.72C1479.17 1029.3 1471.3 1051.59 1462.64 1073.57C1453.26 1097.15 1442.74 1120.24 1431.08 1142.78C1419.39 1165.3 1406.62 1187.25 1392.8 1208.52C1365.09 1251.06 1333.23 1290.76 1297.7 1327.02C1260.68 1364.72 1219.45 1398.06 1174.84 1426.37C1130.21 1454.66 1082.5 1477.76 1032.62 1495.21C1007.82 1503.87 982.533 1511.03 956.848 1516.65C905.485 1527.93 852.949 1532.97 800.377 1531.67C774.123 1531.04 747.925 1528.82 721.928 1525.03C666.312 1518.18 611.608 1505.24 558.814 1486.43C506.025 1467.63 455.465 1443.08 408.044 1413.22C312.903 1353.31 232.154 1273.15 171.555 1178.45C163.89 1164.56 156.99 1150.27 150.888 1135.63C147.809 1128.3 144.959 1120.92 142.279 1113.45C139.628 1105.98 137.148 1098.46 134.867 1090.85C131.988 1081.52 129.309 1072.15 126.829 1062.68C124.377 1053.22 122.125 1043.72 120.073 1034.17C118.049 1024.6 116.224 1015.02 114.628 1005.35C113.032 995.72 111.663 986.056 110.494 976.364C104.839 945.143 101.012 913.618 99.0349 881.951C97.0395 850.309 96.9255 818.553 98.6643 786.854C100.406 755.181 103.994 723.638 109.411 692.383C114.856 661.14 122.097 630.211 131.162 599.823C142.054 567.612 155.366 536.27 170.985 506.066C186.585 475.87 204.423 446.883 224.349 419.349C244.303 391.812 266.282 365.815 290.113 341.556C313.944 317.325 339.543 294.891 366.738 274.48C394.788 253.414 424.207 234.258 454.823 217.154C485.434 200.02 517.168 184.973 549.806 172.114C582.417 159.257 615.884 148.567 649.949 140.187C683.986 131.806 718.564 125.705 753.456 121.971C782.218 118.465 816.797 124.109 825.805 131.948C830.423 135.74 828.798 139.845 817.452 143.664C812.065 145.09 806.648 146.43 801.204 147.712C795.759 148.967 790.286 150.135 784.813 151.219C779.339 152.302 773.838 153.328 768.307 154.24C762.806 155.152 757.275 155.951 751.745 156.692C696.363 167.187 642.169 183.192 589.972 204.468C563.917 215.101 538.375 227.017 513.489 240.215C488.603 253.385 464.401 267.81 440.969 283.431C444.019 275.962 457.502 266.213 473.01 256.521C476.687 254.412 480.365 252.245 483.985 250.022C487.605 247.827 491.197 245.546 494.789 243.237C498.352 240.928 501.887 238.562 505.393 236.168C508.871 233.745 512.349 231.293 515.769 228.784C506.59 232.604 497.525 236.652 488.546 240.928C479.566 245.204 470.701 249.708 461.978 254.44C453.227 259.172 444.589 264.104 436.094 269.263C427.599 274.423 419.218 279.782 411.009 285.37C402.856 290.928 394.846 296.687 387.006 302.644C379.139 308.602 371.442 314.76 363.916 321.088C356.362 327.445 348.979 333.973 341.767 340.7C334.555 347.428 327.542 354.326 320.672 361.396C330.336 351.419 340.256 341.698 350.49 332.263C360.695 322.855 371.185 313.733 381.932 304.896C392.679 296.088 403.682 287.593 414.914 279.412C426.146 271.23 437.605 263.363 449.293 255.837C418.787 275.259 389.764 296.916 362.462 320.632C335.125 344.309 309.597 369.998 286.094 397.485C273.836 411.852 262.205 426.733 251.23 442.098C240.227 457.463 229.908 473.255 220.273 489.504C210.637 505.724 201.686 522.371 193.448 539.361C185.21 556.351 177.712 573.683 170.956 591.3C160.666 616.87 145.671 639.02 133.3 665.873C129.622 673.512 126.458 681.437 123.835 689.533C121.213 697.629 119.16 705.895 117.678 714.248C116.196 722.629 115.312 731.095 114.998 739.619C114.685 748.113 114.941 756.608 115.797 765.075C125.214 716.114 139.628 668.249 158.813 622.229C168.419 599.225 179.166 576.733 191.082 554.84C202.969 532.947 215.968 511.682 230.05 491.129C258.163 450.101 290.141 411.861 325.547 376.932C343.22 359.486 361.75 342.895 381.048 327.245C400.319 311.567 420.33 296.829 441.026 283.061C440.969 283.146 440.912 283.232 440.883 283.317C440.826 283.403 440.769 283.488 440.741 283.574C440.684 283.659 440.655 283.745 440.627 283.83C440.572 283.918 440.533 284.014 440.513 284.115C458.016 272.2 476.089 261.139 494.618 250.934C513.147 240.729 532.161 231.407 551.574 222.969C570.986 214.56 590.798 207.034 610.895 200.449C631.021 193.864 651.431 188.22 672.07 183.545C646.414 190.985 621.101 199.793 598.58 205.894C627.828 197.427 657.532 190.7 687.549 185.74C717.595 180.78 747.897 177.615 778.313 176.247C808.701 174.907 839.174 175.335 869.534 177.587C899.893 179.839 930.081 183.887 959.956 189.731C938.547 187.45 917.054 186.025 895.56 185.455C874.037 184.885 852.487 185.17 830.993 186.338C809.499 187.479 788.062 189.503 766.74 192.353C745.388 195.232 724.18 198.967 703.142 203.528C681.762 208.174 660.582 213.79 639.687 220.347C618.82 226.931 598.238 234.429 578.027 242.867C557.845 251.333 538.033 260.683 518.677 270.917C499.35 281.151 480.45 292.268 462.121 304.241C443.791 316.213 426.031 329.098 408.928 342.81C391.843 356.527 375.432 371.063 359.754 386.368C344.047 401.676 329.138 417.725 314.999 434.486C300.889 451.248 287.576 468.665 275.147 486.71C263.004 504.384 251.772 522.628 241.538 541.442C231.276 560.256 221.983 579.584 213.745 599.339C197.196 638.889 184.777 680.042 176.686 722.144C193.676 677.418 209.326 626.135 231.533 577.959C253.739 529.812 281.704 485.912 313.517 459.8C289.856 489.794 268.735 521.708 250.375 555.211C195.104 656.237 166.247 769.587 166.481 884.744L162.661 850.451C161.264 862.852 160.381 875.337 159.982 887.823C159.611 900.337 159.782 912.852 160.438 925.309C161.093 937.795 162.291 950.252 164.001 962.652C165.711 975.024 167.906 987.339 170.643 999.54C173.38 1011.74 176.373 1023.88 179.679 1035.97C182.986 1048.03 186.578 1060.03 190.455 1071.92C194.332 1083.8 198.494 1095.61 202.912 1107.32C207.359 1119.01 212.091 1130.61 217.08 1142.07C220.444 1150.2 223.779 1158.26 227.513 1166.22L217.08 1142.07C208.784 1121.72 201.458 1100.94 195.158 1079.87C188.83 1058.8 183.556 1037.42 179.309 1015.85C175.061 994.266 171.869 972.487 169.731 950.594C167.593 928.701 166.509 906.723 166.481 884.744C170.956 924.083 175.261 965.475 184.44 1014.68C184.44 987.082 180.193 948.627 180.335 910.315C179.594 897.772 179.223 885.229 179.223 872.658C179.223 860.115 179.622 847.572 180.392 835.029C181.162 822.487 182.302 810.001 183.813 797.543C185.324 785.086 187.234 772.657 189.514 760.314C186.635 778.558 184.754 796.973 183.841 815.417C182.929 833.861 183.015 852.361 184.098 870.805C185.181 889.248 187.234 907.635 190.284 925.851C193.334 944.095 197.353 962.139 202.313 979.927C189.942 878.245 197.41 771.204 232.131 675.166C228.14 688.478 224.577 701.905 221.47 715.417C218.391 728.957 215.74 742.583 213.545 756.295C211.35 770.006 209.64 783.803 208.385 797.629C207.103 811.455 206.304 825.309 205.962 839.191C204.195 862.737 203.767 886.369 204.708 909.973C205.649 933.576 207.929 957.094 211.578 980.412C215.227 1003.76 220.215 1026.88 226.487 1049.63C232.787 1072.37 240.398 1094.78 249.263 1116.64L244.959 1106.67C247.696 1113.37 250.831 1120.01 253.881 1126.71C257.644 1135.37 261.578 1143.98 265.712 1152.45C269.845 1160.94 274.178 1169.32 278.682 1177.62C287.73 1194.2 297.537 1210.35 308.072 1226.02C313.004 1232.81 318.163 1239.42 323.523 1245.83C328.91 1252.28 334.526 1258.52 340.313 1264.56C346.128 1270.61 352.171 1276.42 358.386 1282.07C364.6 1287.68 371.014 1293.07 377.599 1298.26L389.315 1309.95C380.136 1304.36 374.406 1302.51 387.89 1318.16C395.501 1326.68 403.426 1334.89 411.693 1342.76C419.96 1350.65 428.54 1358.18 437.434 1365.36C446.328 1372.52 455.507 1379.33 464.943 1385.74C474.378 1392.16 484.07 1398.2 494.019 1403.82C534.698 1428.1 578.683 1448.54 624.664 1470.29C632.389 1473.54 640.257 1476.48 648.21 1479.1C656.163 1481.72 664.231 1484.03 672.383 1486.06C680.508 1488.05 688.718 1489.76 696.984 1491.13C705.251 1492.5 713.575 1493.58 721.928 1494.32C723.524 1495.07 725.206 1495.69 726.945 1496.15C728.655 1496.61 730.422 1496.92 732.19 1497.09C733.957 1497.26 735.753 1497.26 737.521 1497.09C739.316 1496.95 741.055 1496.63 742.794 1496.18C751.061 1496.83 759.47 1497.29 767.823 1497.66C772.897 1498.17 777.943 1498.54 783.017 1498.83C788.091 1499.09 793.193 1499.26 798.268 1499.28C803.342 1499.34 808.416 1499.26 813.49 1499.09C818.593 1498.89 823.667 1498.6 828.712 1498.2C808.9 1498.2 788.319 1498.2 767.823 1497.66L745.018 1495.66C746.814 1495.01 748.609 1494.47 750.462 1494.01C752.315 1493.58 754.168 1493.24 756.05 1493.01C757.931 1492.79 759.813 1492.64 761.722 1492.64C763.604 1492.61 765.485 1492.7 767.395 1492.9C749.807 1490.9 732.304 1488.17 714.943 1484.66C697.612 1481.18 680.394 1476.96 663.404 1472.03C646.414 1467.1 629.624 1461.46 613.119 1455.07C596.614 1448.71 580.365 1441.67 564.458 1433.92C548.238 1426.05 532.389 1417.53 516.881 1408.38C501.374 1399.23 486.237 1389.45 471.528 1379.07C456.79 1368.7 442.508 1357.72 428.683 1346.21C414.857 1334.66 401.487 1322.57 388.631 1309.95C396.1 1314.51 406.761 1321.35 411.522 1323.6C399.663 1315.7 388.261 1307.12 376.943 1298.26C368.762 1289.85 360.809 1281.24 353.055 1272.43C345.33 1263.62 337.804 1254.61 330.535 1245.44C315.952 1227.07 302.309 1207.97 289.657 1188.22C291.595 1190.82 293.591 1193.38 295.672 1195.89C297.753 1198.37 299.891 1200.82 302.086 1203.22C304.309 1205.58 306.59 1207.89 308.927 1210.14C311.265 1212.4 313.659 1214.59 316.111 1216.7C306.903 1202.9 298.237 1188.74 290.085 1174.28C281.932 1159.83 274.321 1145.06 267.279 1130.04C260.238 1115.02 253.767 1099.71 247.895 1084.2C241.993 1068.69 236.687 1052.95 231.989 1037.03C227.285 1021 223.209 1004.81 219.759 988.479C216.31 972.145 213.516 955.668 211.322 939.106C209.155 922.572 207.616 905.925 206.732 889.248C205.82 872.572 205.592 855.867 205.962 839.191C208.328 808.29 212.975 777.617 219.902 747.429C226.8 717.241 235.922 687.594 247.211 658.746C258.528 629.897 271.926 601.933 287.376 575.08C302.798 548.227 320.216 522.543 339.458 498.284C327.542 510.883 316.31 524.082 305.792 537.879C295.273 551.676 285.467 565.986 276.459 580.81C267.479 595.633 259.241 610.912 251.858 626.591C244.474 642.298 237.918 658.347 232.217 674.738C239.087 651.819 247.325 629.327 256.846 607.377C266.396 585.428 277.228 564.076 289.286 543.409C301.345 522.742 314.629 502.816 329.053 483.717C343.477 464.646 359.013 446.431 375.604 429.184C392.109 411.966 409.697 395.803 428.198 380.752C446.727 365.729 466.168 351.875 486.408 339.247C506.647 326.647 527.657 315.301 549.321 305.295C570.958 295.29 593.221 286.652 615.941 279.412C587.035 299.993 548.865 326.533 537.463 347.998C541.482 352.017 593.592 328.471 565.485 346.658C515.769 381.693 475.69 412.993 446.242 443.551C416.824 474.11 398.836 503.187 398.466 531.836C399.521 538.078 425.974 521.374 450.632 511.026C475.319 500.65 496.243 495.062 485.068 510.285C477.086 519.464 469.361 528.871 461.921 538.506C454.481 548.141 447.326 558.004 440.484 568.067C433.643 578.13 427.086 588.392 420.843 598.854C414.629 609.287 408.7 619.949 403.084 630.753C400.746 634.516 398.494 638.307 396.271 642.127C394.076 645.975 391.938 649.852 389.885 653.786C385.768 661.612 381.946 669.59 378.426 677.703C378.112 678.615 377.827 679.556 377.628 680.525C377.428 681.465 377.286 682.435 377.229 683.404C377.143 684.373 377.143 685.342 377.229 686.312C377.286 687.281 377.4 688.25 377.599 689.191C373.214 701.576 369.221 714.096 365.626 726.734C362.006 739.362 358.813 752.133 356.02 764.961C350.384 790.64 346.394 816.652 344.076 842.84C342.593 855.297 341.824 867.669 341.453 880.098C341.082 881.58 340.683 883.063 340.199 884.516C339.714 885.942 339.201 887.367 338.602 888.792C338.032 890.189 337.405 891.586 336.721 892.954C336.037 894.323 335.324 895.662 334.526 896.974C337.434 904.784 339.885 912.538 341.995 920.206C342.451 928.502 343.106 936.74 344.019 944.978C344.931 953.217 346.071 961.427 347.411 969.608C348.779 977.789 350.347 985.914 352.171 994.009C353.967 1002.08 355.991 1010.12 358.243 1018.1C358.87 1022.74 359.555 1027.36 360.353 1031.98C361.151 1036.6 362.006 1041.19 362.947 1045.78C363.888 1050.34 364.914 1054.93 366.026 1059.46C367.137 1064.02 368.306 1068.53 369.56 1073.03C371.413 1071.77 372.924 1067.81 376.259 1070.12C380.279 1079.7 384.583 1089.14 389.201 1098.4C393.848 1107.69 398.751 1116.81 403.996 1125.79C409.213 1134.75 414.714 1143.53 420.501 1152.13C426.317 1160.71 432.388 1169.12 438.717 1177.33C440.712 1180.84 442.651 1184.37 444.532 1187.94C446.414 1191.5 448.209 1195.09 449.948 1198.74C451.716 1202.36 453.398 1206.04 454.994 1209.72C456.619 1213.39 458.187 1217.13 459.669 1220.86C482.617 1230.7 510.724 1254.93 544.105 1278.27C552.201 1284.29 560.524 1289.99 569.048 1295.44C577.543 1300.85 586.266 1305.95 595.131 1310.77C603.997 1315.59 613.033 1320.07 622.241 1324.23C631.42 1328.39 640.77 1332.24 650.234 1335.74V1335.15C658.757 1338.48 667.395 1341.62 676.118 1344.5C684.812 1347.37 693.592 1350.03 702.458 1352.42C720.145 1357.28 738.083 1361.17 756.192 1364.08C757.618 1364.73 759.043 1365.42 760.44 1366.1C761.836 1366.82 763.233 1367.53 764.602 1368.27C765.998 1369.01 767.367 1369.78 768.706 1370.55C770.075 1371.32 771.415 1372.12 772.754 1372.94C782.361 1370.72 791.968 1371.32 796.757 1369.89C826.546 1374.37 851.66 1377.88 877.743 1379.73C879.454 1378.5 881.193 1377.36 882.96 1376.28C886.54 1374.14 890.298 1372.32 894.192 1370.84C896.13 1370.09 898.125 1369.41 900.121 1368.84C909.603 1367.8 919.038 1366.37 928.399 1364.54C933.074 1363.62 937.749 1362.63 942.396 1361.51C947.014 1360.4 951.632 1359.2 956.221 1357.89C961.609 1356.67 966.94 1355.38 972.27 1354.04C977.601 1352.68 982.932 1351.22 988.205 1349.71C993.508 1348.2 998.753 1346.6 1004 1344.92C1009.24 1343.27 1014.46 1341.53 1019.65 1339.71C1037.38 1333.49 1054.8 1326.37 1071.79 1318.38C1105.82 1302.37 1138.13 1282.93 1168.22 1260.37C1183.25 1249.08 1197.7 1237.05 1211.5 1224.31C1212.29 1224.37 1213.09 1224.45 1213.86 1224.63C1214.66 1224.8 1215.43 1225.02 1216.2 1225.31C1216.94 1225.6 1217.68 1225.91 1218.39 1226.28C1219.11 1226.68 1219.79 1227.11 1220.42 1227.59C1225.49 1216.16 1238.78 1205.73 1243.54 1195.89C1243.08 1198.14 1243.54 1199.91 1244.79 1200.68C1246.33 1197.89 1247.93 1195.15 1249.64 1192.47C1251.35 1189.82 1253.12 1187.2 1255 1184.63C1256.85 1182.07 1258.82 1179.56 1260.84 1177.13C1262.86 1174.68 1264.97 1172.32 1267.17 1170.04C1269.31 1167.96 1271.42 1165.87 1273.5 1163.71C1275.58 1161.57 1277.6 1159.37 1279.57 1157.15C1281.54 1154.9 1283.47 1152.65 1285.36 1150.31C1287.24 1148 1289.06 1145.66 1290.86 1143.27C1291.57 1141.64 1292.23 1139.99 1292.85 1138.34C1293.51 1136.68 1294.11 1135.03 1294.68 1133.35C1295.22 1131.67 1295.76 1129.98 1296.25 1128.27C1296.76 1126.56 1297.21 1124.85 1297.64 1123.14C1299.64 1120.24 1301.52 1117.24 1303.37 1114.33C1332.45 1088.76 1342.51 1052.39 1353.69 1013.76C1357.31 1004.16 1360.67 994.437 1363.78 984.659C1366.86 974.853 1369.68 964.961 1372.19 954.984C1374.72 945.035 1376.98 935.001 1378.91 924.91C1380.88 914.819 1382.56 904.67 1383.93 894.494C1387.75 861.996 1396.25 849.111 1400.64 825.309" fill="white"/>
<path d="M573.695 1308.01C581.021 1313.22 588.461 1318.24 596.044 1323.06C603.626 1327.88 611.323 1332.49 619.134 1336.94C626.945 1341.36 634.869 1345.58 642.908 1349.6C650.947 1353.62 659.071 1357.41 667.281 1361.03C630.936 1348.66 596.5 1337.68 573.695 1308.24V1308.01ZM509.299 499.31C512.948 498.141 516.596 496.887 520.188 495.547C523.809 494.236 527.4 492.839 530.935 491.357C534.499 489.903 538.033 488.392 541.54 486.796C545.017 485.199 548.495 483.517 551.916 481.807C534.641 494.065 518.193 507.463 502.685 521.916C487.178 536.368 472.668 551.847 459.242 568.267C445.815 584.658 433.5 601.961 422.411 620.006C411.294 638.079 401.402 656.836 392.822 676.221H392.138C395.929 667.384 400.005 658.661 404.395 650.109C408.785 641.528 413.46 633.119 418.449 624.909C423.438 616.671 428.711 608.632 434.27 600.764C439.829 592.925 445.673 585.257 451.773 577.817C475.376 546.944 499.521 521.231 509.584 499.481L509.299 499.31ZM498.352 1247.26L499.635 1247.6C500.063 1247.72 500.519 1247.83 500.946 1247.97C501.374 1248.12 501.802 1248.23 502.229 1248.37C502.628 1248.51 503.056 1248.69 503.484 1248.83C503.027 1248.74 502.543 1248.66 502.087 1248.54C501.631 1248.43 501.175 1248.29 500.718 1248.14C499.823 1247.83 498.955 1247.44 498.124 1246.98L498.352 1247.26ZM605.736 301.989L615.485 298.426C603.418 303.734 591.507 309.39 579.767 315.387C573.894 318.38 568.079 321.459 562.292 324.623C556.505 327.787 550.776 331.008 545.074 334.344C549.835 331.122 554.653 328.044 559.584 325.079C564.487 322.114 569.504 319.292 574.55 316.584C579.624 313.876 584.755 311.311 589.943 308.887C595.16 306.436 600.405 304.155 605.736 301.989V301.989ZM883.873 269.121C897.185 270.033 910.497 271.373 923.724 273.169C936.951 274.965 950.121 277.217 963.206 279.925C976.29 282.605 989.289 285.74 1002.15 289.304C1015.03 292.895 1027.77 296.886 1040.37 301.333C1055.84 307.541 1070.96 314.573 1085.67 322.399C1100.38 330.21 1114.66 338.791 1128.49 348.141C1142.28 357.462 1155.6 367.497 1168.34 378.243C1181.08 388.99 1193.25 400.364 1204.77 412.394C1182.33 392.867 1158.47 375.051 1133.39 359.059C1108.33 343.067 1082.08 328.927 1054.94 316.812C1027.77 304.697 999.751 294.606 971.102 286.624C942.425 278.642 913.234 272.798 883.73 269.121H883.873ZM653.741 420.29C658.074 419.35 662.435 418.466 666.825 417.639C671.187 416.841 675.577 416.1 679.966 415.444C688.779 414.147 697.629 413.13 706.506 412.394C702.23 413.392 698.011 414.447 693.792 415.558C689.545 416.699 685.354 417.867 681.164 419.122C676.973 420.347 672.811 421.659 668.649 423.027C664.516 424.395 660.383 425.821 656.278 427.303C658.587 424.11 654.852 422.314 653.741 420.376V420.29ZM423.808 424.338L435.581 413.506C426.659 424.11 417.993 434.772 409.869 445.861C412.349 441.328 419.19 431.55 423.808 424.338ZM838.861 402.331C826.176 401.277 813.433 400.849 800.776 401.077C808.217 399.281 815.685 397.257 823.125 394.663C824.323 395.49 825.548 396.259 826.803 396.972C828.057 397.713 829.34 398.397 830.651 398.996C831.962 399.623 833.302 400.193 834.642 400.706C836.01 401.248 837.379 401.704 838.775 402.103L838.861 402.331ZM1029.34 446.174C1033.13 447.999 1036.89 449.908 1040.63 451.904C1044.33 453.899 1048.01 455.952 1051.66 458.09C1055.28 460.228 1058.87 462.423 1062.44 464.703C1065.97 466.984 1069.48 469.321 1072.96 471.744C1068.54 469.236 1064.09 466.813 1059.61 464.447C1055.14 462.081 1050.61 459.8 1046.07 457.577C1041.51 455.353 1036.92 453.187 1032.33 451.106C1027.72 449.025 1023.07 447.001 1018.39 445.062C1023.47 445.062 1027.72 445.062 1029.34 446.174" fill="white"/>
</svg>
