<svg width="3850" height="3017" viewBox="0 0 3850 3017" fill="none" xmlns="http://www.w3.org/2000/svg">
<g clip-path="url(#clip0_122_205)">
<path d="M625.371 2302.68C648.604 2279.45 680.55 2265.9 714.433 2265.9H3787.08C3843.22 2265.9 3871.3 2333.65 3831.61 2373.34L3224.63 2980.22C3201.4 3003.45 3169.45 3017 3135.57 3017H62.9241C6.7763 3017 -21.2976 2949.25 18.3931 2909.56L625.371 2302.68Z" fill="white"/>
<path d="M625.371 36.7809C649.572 13.5508 681.519 0 714.433 0H3787.08C3843.22 0 3871.3 67.7543 3831.61 107.439L3224.63 714.323C3201.4 737.553 3169.45 751.104 3135.57 751.104H62.9241C6.7763 751.104 -21.2976 683.35 18.3931 643.665L625.371 36.7809Z" fill="white"/>
<path d="M3224.63 1162.47C3201.4 1139.24 3169.45 1125.69 3135.57 1125.69H62.9241C6.7763 1125.69 -21.2976 1193.44 18.3931 1233.13L625.371 1840.01C648.604 1863.24 680.55 1876.79 714.433 1876.79H3787.08C3843.22 1876.79 3871.3 1809.04 3831.61 1769.35L3224.63 1162.47Z" fill="white"/>
</g>
<defs>
<clipPath id="clip0_122_205">
<rect width="3850" height="3017" fill="white"/>
</clipPath>
</defs>
</svg>
