<svg width="1479" height="1479" viewBox="0 0 1479 1479" fill="none" xmlns="http://www.w3.org/2000/svg">
<path d="M916.569 689.979L620.58 786.629L363.074 900.28L291.033 919.299C272.686 936.751 253.448 954.427 232.641 972.324C209.821 992.011 188.568 1009.91 172.233 1022.88C154.113 1037.2 127.265 1064.05 113.619 1081.05C93.259 1106.56 77.1514 1133.63 70.2155 1154.43C57.9096 1192.02 63.9531 1230.05 87.6673 1265.18C118.094 1309.92 178.724 1355.56 249.419 1386.66C285.441 1402.55 346.07 1422.9 391.708 1434.31C467.549 1453.56 614.315 1474.36 695.078 1477.5C711.407 1478.17 733.334 1478.17 734.227 1477.5C736.019 1476.37 748.548 1452.44 763.092 1422.68C812.759 1321.33 848.554 1226.25 868.017 1145.04C879.65 1095.82 888.822 1030.27 894.86 952.64C896.429 930.938 897.098 858.227 895.756 833.615C893.741 793.346 890.161 760.684 884.572 728.69C883.677 723.991 883.45 719.739 883.9 719.517C884.792 718.846 887.477 717.951 923.944 707.434L916.565 689.986V689.981H916.569V689.979ZM849.004 729.581C851.689 729.581 858.845 798.263 860.634 841.668C861.084 850.84 860.857 856.88 860.411 856.88C858.624 856.88 822.601 835.629 796.878 819.521C774.504 805.425 731.997 777.235 725.286 771.866C723.044 770.301 723.267 770.078 741.616 763.812C772.711 753.295 846.544 729.581 849.004 729.581V729.581ZM698.213 779.249C700.228 779.249 705.37 782.154 717.676 789.762C763.762 818.623 826.407 853.525 853.254 865.161C861.53 868.74 862.422 867.395 843.409 880.374C802.691 908.115 751.903 935.408 689.707 962.927C678.746 967.849 669.575 971.651 669.352 971.651C668.906 971.651 670.244 966.061 672.032 959.348C687.022 903.636 695.525 847.259 695.975 802.066C696.198 779.692 696.198 779.692 698.213 779.025C697.763 779.249 697.986 779.249 698.213 779.249V779.249ZM667.116 791.105C668.454 792.445 667.562 842.562 665.771 856.208C661.744 888.873 655.48 919.298 645.192 953.531C642.73 961.803 640.489 968.743 640.047 969.189C639.147 970.306 608.497 940.328 598.43 928.695C580.978 908.558 567.334 888.423 557.266 868.737C552.12 858.668 544.068 838.983 544.737 838.31C548.316 835.85 666.221 790.211 667.116 791.105ZM520.797 848.601C521.02 848.601 521.243 848.601 521.47 848.824C521.916 849.272 523.485 852.853 524.827 856.878C531.984 876.343 548.089 904.979 561.964 923.326C577.177 943.462 597.091 964.938 613.642 979.032C619.014 983.507 623.933 987.756 624.603 988.429C625.948 989.772 626.395 989.546 589.926 1003.42C547.647 1019.53 501.556 1035.63 448.756 1052.64C436.143 1056.7 423.542 1060.8 410.952 1064.94C408.935 1065.61 409.608 1064.49 415.425 1055.32C441.599 1014.38 481.421 934.064 503.795 877.238C507.599 867.393 511.402 857.551 512.074 855.313C512.97 852.179 514.086 851.062 516.993 849.495C518.559 849.051 520.128 848.601 520.797 848.601V848.601ZM476.056 867.17C476.726 867.62 465.316 891.556 454.129 913.481C432.427 955.765 408.712 997.381 376.944 1047.94C371.575 1056.67 366.431 1064.72 365.758 1065.62C364.641 1067.18 364.191 1066.73 360.612 1059.8C353.006 1044.81 346.74 1025.57 343.384 1007.89C340.027 990.441 340.7 960.016 344.505 941.224C347.41 927.354 347.189 927.578 353.9 924.221C382.537 909.68 475.161 866.276 476.056 867.17V867.17ZM861.98 882.833V892.229C861.98 942.12 856.611 1010.58 848.777 1060.47C847.435 1069.2 846.313 1076.35 846.093 1076.58C846.093 1076.58 839.606 1074.79 831.999 1072.55C798.442 1062.04 761.974 1046.6 729.085 1028.48C707.38 1016.62 675.838 997.155 676.734 996.259C676.954 996.038 686.353 991.115 697.313 985.298C741.169 962.479 783.225 937.869 819.693 913.484C833.341 904.31 853.92 889.547 858.4 885.518L861.98 882.833ZM307.141 949.052C308.035 949.052 307.811 950.842 306.469 958.896C305.573 964.715 304.456 975.453 304.011 982.833C302.217 1015.5 307.59 1039.66 323.698 1072.77C328.172 1081.95 331.754 1089.55 331.527 1089.77C329.96 1091.12 181.858 1134.52 135.32 1147.27C121.45 1151.08 109.371 1154.43 108.471 1154.65C106.908 1155.1 106.683 1154.88 107.354 1151.07C112.499 1118.19 137.557 1075.23 172.457 1038.99C195.725 1014.83 214.296 1000.73 246.064 982.608C268.884 969.635 304.008 950.173 306.693 949.276C306.695 949.052 306.918 949.052 307.141 949.052V949.052ZM656.152 1011.47C656.375 1011.25 661.744 1014.16 668.231 1017.96C716.11 1045.7 782.779 1071.43 839.601 1084.63L844.751 1085.75L837.59 1089.77C807.836 1106.33 710.068 1147.05 610.065 1184.41C595.521 1189.78 581.204 1195.15 578.515 1196.27C575.831 1197.39 573.37 1198.06 573.37 1197.83C573.37 1197.61 577.399 1189.78 582.541 1180.16C610.507 1127.81 638.698 1064.05 653.016 1019.75C654.81 1015.5 655.926 1011.7 656.152 1011.47V1011.47ZM620.58 1023.11C620.807 1023.33 619.015 1028.03 616.776 1033.4C597.314 1080.6 571.805 1132.06 539.144 1189.78C530.867 1204.55 523.93 1216.41 523.703 1216.41C523.484 1216.41 516.769 1212.38 508.716 1207.46C461.284 1178.37 419.225 1142.58 391.709 1107.9L387.681 1102.98L408.038 1097.38C480.973 1077.47 542.942 1056 604.469 1029.6C613.196 1026.02 620.357 1023.11 620.58 1023.11V1023.11ZM841.62 1100.29C841.62 1100.29 841.844 1100.52 841.62 1100.29C841.843 1105.44 830.433 1151.53 821.035 1184.86C813.206 1212.82 806.491 1234.75 794.189 1273.45C788.82 1290.46 784.125 1304.55 783.898 1304.55C783.675 1304.55 782.333 1304.33 780.991 1303.88C714.546 1291.8 655.034 1275.02 599.103 1252.65C583.44 1246.38 561.069 1236.31 559.726 1235.2C559.281 1234.74 572.705 1228.48 589.707 1221.1C691.502 1176.58 797.099 1126.02 833.341 1104.32C837.591 1101.63 840.948 1100.29 841.62 1100.29V1100.29ZM331.305 1117.74C331.752 1118.19 303.339 1159.13 263.514 1214.84C249.644 1234.3 233.536 1257.12 227.497 1265.62C221.455 1274.13 212.284 1287.55 207.138 1295.6L197.737 1310.15L187.669 1301.65C175.811 1291.8 155.231 1270.77 146.058 1259.14C126.816 1235.2 113.843 1209.92 108.697 1186.88C106.235 1176.14 106.235 1170.76 108.47 1170.1C111.825 1169.2 171.56 1155.11 227.495 1142.13C258.593 1134.97 294.61 1126.47 307.586 1123.34C320.564 1120.2 331.082 1117.74 331.305 1117.74V1117.74ZM359.94 1128.71L367.097 1136.76C399.317 1172.78 432.204 1199.41 472.027 1222.67C479.187 1226.7 484.555 1230.28 484.105 1230.5C482.544 1231.62 345.844 1280.16 282.531 1302.09C246.961 1314.62 217.651 1324.69 217.43 1324.69C217.207 1324.69 215.192 1323.35 212.951 1321.78L208.927 1318.87L215.414 1309.47C236.443 1279.05 262.846 1245.71 320.343 1176.36L359.94 1128.71ZM538.475 1256.45C538.695 1256.23 548.539 1259.81 560.619 1264.29C589.707 1275.25 612.747 1282.18 643.624 1290.01C681.658 1299.63 736.693 1309.03 769.135 1311.71C774.057 1312.16 776.741 1312.61 775.846 1313.28C774.277 1314.18 741.393 1325.14 717.23 1332.74C678.746 1344.82 561.293 1379.5 465.539 1407.02C447.865 1412.17 432.65 1416.42 431.756 1416.64C429.521 1417.09 422.136 1415.07 422.136 1414.18C422.136 1413.73 427.504 1406.8 433.994 1399.19C466.208 1360.71 498.203 1317.75 524.827 1277.04C532.208 1265.85 538.475 1256.67 538.475 1256.45ZM499.096 1257.57C499.319 1257.8 483.436 1283.3 455.697 1327.15C443.837 1345.72 430.637 1366.75 425.937 1374.13C421.463 1381.29 414.752 1392.48 410.95 1398.74L404.461 1410.15L401.106 1409.26C393.05 1407.02 336.448 1387.1 321.458 1381.07C302.888 1373.68 283.648 1364.73 269.328 1357.13C251.433 1347.51 229.062 1333.19 230.85 1332.74C231.297 1332.52 261.948 1324.24 298.86 1314.17C396.853 1287.55 451.217 1272.11 486.792 1260.93C493.281 1258.91 498.873 1257.35 499.096 1257.57ZM777.634 1322.9H777.856C778.752 1325.14 742.511 1425.81 729.306 1457.58C726.402 1464.74 725.286 1466.53 723.717 1466.3C719.913 1466.08 667.34 1458.7 635.343 1454C579.639 1445.5 486.12 1429.16 462.631 1423.8L457.262 1422.68L490.593 1415.07C562.187 1398.96 596.64 1390.24 631.54 1379.5C675.615 1366.07 719.244 1349.29 763.315 1328.71C770.25 1325.58 776.068 1323.12 777.634 1322.9Z" fill="white"/>
<path d="M611.409 0.0114589C606.486 -0.656038 527.062 27.9803 475.83 48.7841C406.698 76.9768 353.007 103.825 319.894 127.088C307.591 135.817 292.151 151.252 289.694 157.291C288.799 159.529 288.35 162.213 288.35 164.898L318.33 193.311L389.697 216.131L559.505 246.558L753.696 279.894L755.711 263.114C755.041 263.114 754.591 262.892 753.926 262.892L728.414 258.863L723.272 249.691C696.872 203.155 667.788 145.434 650.786 106.506C637.587 76.3021 625.058 41.4045 618.121 16.346C614.317 1.13289 613.871 0.238426 611.414 0.0155833V0.0104199H611.409V0.0114589ZM607.825 11.4249H608.055C608.274 11.6457 609.17 17.9142 610.066 25.2928C613.866 56.6187 620.807 86.8169 631.768 119.482C640.044 144.093 640.044 142.752 630.426 139.841C607.606 133.579 505.364 115.904 431.311 105.613C419.453 104.046 409.385 102.481 409.385 102.258C408.491 101.364 462.854 72.9481 486.793 61.7647C517.443 47.6668 601.563 12.5422 607.825 11.4249V11.4249ZM392.155 111.653L400.884 114.558C448.31 130.668 567.553 153.489 633.332 158.858C640.712 159.53 646.98 160.202 647.2 160.202C647.422 160.425 641.162 163.781 633.106 167.583C601.34 183.468 566.438 202.932 542.275 217.923C535.118 222.395 528.627 225.977 527.734 225.977C526.839 225.977 522.143 225.082 517.22 224.41L508.272 223.066L485.902 201.139C446.526 162.885 415.651 133.354 403.792 122.165L392.155 111.653V111.653ZM383.209 118.586L414.754 157.964C431.979 179.665 449.43 200.918 453.237 205.614C457.036 210.315 460.171 214.12 459.948 214.343C459.052 215.013 414.31 206.286 390.592 200.92C366.206 195.325 356.139 192.64 341.15 187.944L328.844 183.915V180.781C329.067 165.791 348.086 143.42 380.301 120.602L383.209 118.586ZM651.23 172.281C652.127 172.281 653.242 174.294 655.927 180.335C663.533 197.113 687.252 242.308 693.064 251.031C694.859 253.943 697.986 254.166 666.444 249.02C590.604 236.712 566.215 232.689 566.215 232.241C566.215 232.019 568.453 230.451 571.361 228.884C594.853 215.911 618.566 199.354 639.598 181.679C644.744 177.427 649.442 173.401 650.335 172.728C650.558 172.281 651.008 172.058 651.23 172.281Z" fill="white"/>
<path d="M291.255 154.158C291.255 154.158 286.336 161.992 291.033 173.626C293.945 180.783 302.445 189.507 312.063 198.457C312.063 198.457 411.62 295.553 423.702 309.426C478.736 372.962 502.676 435.605 504.914 521.964C506.256 577.448 495.738 626.219 469.564 682.823C423.029 784.394 324.812 896.481 173.352 1020.87L195.504 1013.49C209.821 1002.75 229.286 991.342 274.924 966.284C380.297 908.559 498.872 855.537 644.295 800.949C853.695 722.196 1198.01 630.019 1393.99 600.044L1414.35 596.91L1411.22 591.987C1393.32 564.244 1381.02 547.02 1366.25 528.674C1323.3 475.427 1271.17 432.25 1207.41 396.453C1119.71 347.46 1006.27 309.203 862.647 280.79C835.577 275.418 776.066 265.128 727.742 257.745C625.274 241.864 559.052 230.9 486.12 218.371C459.946 213.894 420.79 207.184 394.839 201.593C381.415 198.681 355.689 192.642 335.554 185.707C319.447 179.439 296.177 173.175 291.255 154.158V154.158ZM348.979 210.092C349.2 209.871 352.779 211.209 357.48 212.776C365.982 215.681 376.943 219.038 389.923 222.62C399.742 225.321 409.586 227.931 419.453 230.45C432.877 233.804 444.061 236.937 444.284 236.937C445.853 238.504 468.45 310.762 476.057 338.505C478.961 349.023 481.203 357.97 480.979 357.97C480.749 358.196 478.291 354.391 475.384 349.246C449.207 303.157 407.818 256.4 359.94 218.813C353.679 214.342 348.979 210.315 348.979 210.092ZM459.051 240.518C460.171 240.518 465.093 241.19 471.13 242.531C509.164 251.032 577.402 264.008 621.026 271.392C628.41 272.509 634.228 273.855 634.228 274.299C634.228 274.749 631.541 276.312 628.184 278.104C620.804 281.906 591.046 299.579 581.205 306.292C556.37 322.847 534 340.745 517.89 356.852C511.403 363.341 505.807 368.71 505.807 368.71C505.807 368.71 504.469 364.909 503.345 360.207C495.296 329.109 478.514 283.021 463.301 250.583C460.839 245.439 458.824 240.74 458.824 240.294C458.824 240.741 458.824 240.518 459.051 240.518V240.518ZM652.796 277.432C654.138 277.878 656.376 285.486 660.849 302.264C669.128 334.706 672.932 370.949 671.59 404.731C671.14 414.128 670.694 422.852 670.244 423.973L669.575 426.208L657.942 422.406C634.003 414.8 595.076 403.387 561.743 393.993C542.723 388.847 527.29 384.148 527.29 383.702C527.29 382.357 555.033 354.617 566.889 344.103C589.48 324.188 650.781 276.76 652.796 277.432V277.432ZM668.233 279.667C668.905 279 760.856 294.88 802.692 302.936C833.792 308.975 878.983 318.373 881.666 319.493C883.009 319.939 878.309 322.623 863.319 329.334C804.257 355.96 760.405 379.895 716.783 408.982C705.373 416.589 695.752 422.852 695.529 422.852C695.306 422.852 695.082 416.366 695.082 408.534C695.082 366.028 686.58 323.072 670.916 286.829C669.351 283.249 668.009 279.894 668.233 279.667V279.667ZM906.051 326.652C906.724 327.322 903.813 345.446 901.129 356.183C893.076 389.518 871.375 438.965 844.755 485.496C840.052 493.775 835.803 500.487 835.352 500.71C834.91 500.932 828.868 497.575 821.931 493.549C795.98 478.336 766.45 464.018 734.231 450.593C725.286 446.791 717.453 443.657 717.229 443.213C715.66 441.869 787.701 394.215 825.735 371.396C855.938 353.051 905.156 325.755 906.051 326.652V326.652ZM923.053 329.335C925.068 329.335 965.786 340.523 987.037 346.787C1039.61 362.449 1100.02 384.596 1139.39 402.494L1155.72 409.88L1144.32 412.562C1048.12 434.709 965.786 460.217 886.363 492.432C879.874 495.117 874.057 497.355 873.614 497.355C873.164 497.355 875.402 492.21 878.31 485.943C902.249 435.159 917.686 382.136 921.486 336.941C921.714 332.689 922.381 329.335 923.053 329.335V329.335ZM517.667 422.406C518.337 421.733 549.436 429.118 566.215 433.812C591.719 440.974 645.859 459.094 645.859 460.438C645.859 460.661 639.82 465.807 632.663 472.073C603.355 496.459 575.164 522.184 541.379 554.849C531.311 564.473 522.812 572.302 522.367 572.302C521.917 572.302 521.697 570.957 521.917 569.168C527.062 531.58 525.946 483.258 518.787 434.262C518.113 427.996 517.443 422.629 517.667 422.406V422.406ZM1171.17 423.079C1171.61 423.523 1156.85 446.791 1147.45 459.989C1134.03 479.229 1114.34 504.738 1069.81 560.669C1046.33 590.197 1019.92 623.535 1011.2 634.721C1002.25 645.906 994.87 655.3 994.643 655.3C994.421 655.3 991.516 651.276 988.382 646.355C963.324 608.768 933.343 575.88 897.771 546.349C891.06 540.754 883.68 534.714 881.219 532.924C878.757 531.135 876.742 529.345 876.742 529.122C876.742 528.452 914.772 512.117 943.637 500.486C994.2 479.902 1063.1 455.293 1114.78 439.407C1141.86 430.907 1170.72 422.629 1171.17 423.079V423.079ZM1188.39 427.55C1189.28 427.328 1194.66 430.013 1201.14 433.812C1255.51 464.91 1308.75 504.959 1350.82 546.125C1362.67 557.76 1391.98 588.187 1391.53 588.409C1391.53 588.409 1381.24 589.304 1369.16 590.197C1274.97 597.359 1154.39 617.268 1038.5 645.232C1030.67 647.02 1023.73 648.587 1023.28 648.587C1022.84 648.587 1031.56 639.863 1042.53 629.35C1110.54 563.799 1141.64 522.41 1178.33 448.579C1183.47 437.619 1187.95 428.223 1188.39 427.55C1188.17 427.55 1188.17 427.55 1188.39 427.55V427.55ZM690.157 478.562C693.291 479.23 722.375 492.882 744.299 503.842C764.435 513.906 794.639 530.017 796.204 531.358C796.427 531.58 785.686 537.174 772.492 543.663C730.428 564.693 694.41 584.603 656.822 607.423C646.084 613.913 637.136 619.285 636.913 619.285C636.017 619.285 636.24 618.385 642.282 607.423C662.418 570.736 678.524 526.885 687.699 484.152C688.591 480.797 689.487 478.562 690.157 478.562V478.562ZM661.072 483.929C661.744 484.602 654.138 512.118 649.442 527.108C640.266 555.522 624.83 591.093 609.843 617.94C606.259 624.202 600.891 633.375 597.982 638.52L592.391 647.469L579.862 635.391C565.322 621.295 553.461 612.57 538.251 604.738C532.207 601.609 527.511 598.921 527.511 598.477C527.511 596.687 565.767 562.01 595.075 536.952C616.104 518.83 660.402 483.259 661.072 483.929V483.929ZM838.937 557.089L849.901 564.246C874.952 580.58 904.483 602.279 927.084 621.295C939.832 631.808 964.441 653.96 969.367 659.329L972.048 662.241L953.93 667.385C851.463 695.795 772.265 721.076 679.866 755.084C669.575 758.886 660.849 762.018 660.176 762.018C658.838 762.018 657.716 763.136 680.762 741.881C739.827 687.521 792.175 627.559 831.105 569.167L838.937 557.089V557.089ZM792.178 568.722C792.623 569.168 761.974 612.345 743.627 636.732C721.702 665.817 682.773 714.588 655.927 746.354C644.743 759.557 635.125 770.518 634.675 770.743C634.003 770.966 633.78 767.611 633.78 762.465C633.78 735.392 626.846 706.532 614.763 681.924C609.617 671.633 608.721 669.171 609.844 668.054C614.093 664.249 679.196 627.111 720.36 604.964C748.102 590.198 791.501 568.274 792.178 568.722V568.722ZM509.387 638.077C510.06 638.077 515.206 640.759 521.023 643.893C535.341 651.723 548.094 660.448 559.503 669.846C559.949 670.292 554.134 674.992 546.527 680.582C525.273 695.795 493.058 720.183 474.268 735.173C454.575 750.834 453.908 751.281 456.143 747.926C470.91 725.329 478.29 712.576 486.124 696.246C493.058 681.705 499.991 664.477 504.914 649.487C506.703 642.999 508.941 638.077 509.387 638.077ZM584.785 697.138C585.9 696.917 587.247 698.928 593.284 707.879C606.037 726.892 615.881 752.4 618.346 772.982L618.788 777.459L588.142 789.317C533.326 810.568 482.768 831.6 448.533 847.258C438.916 851.734 422.136 859.787 411.175 865.16C400.212 870.749 391.263 875.001 391.263 874.778C391.263 874.555 398.197 869.409 406.698 863.143C473.596 814.597 531.538 761.348 574.94 708.103C579.639 702.508 583.892 697.362 584.335 697.139L584.785 697.138V697.138ZM550.108 705.641C551.004 706.536 525.5 735.395 508.049 753.069C464.87 797.145 422.138 831.6 369.114 865.16C362.403 869.409 356.363 873.211 355.691 873.661C354.123 874.555 356.136 872.316 379.405 847.035C394.172 831.15 405.357 817.727 418.109 801.174C426.61 790.213 428.177 788.646 440.484 779.917C473.372 756.202 549.213 704.745 550.108 705.641Z" fill="white"/>
</svg>
