<svg width="2705" height="2705" viewBox="0 0 2705 2705" fill="none" xmlns="http://www.w3.org/2000/svg">
<path d="M309.948 338.125C263.263 338.125 225.417 375.971 225.417 422.656C225.417 469.341 263.263 507.188 309.948 507.188H450.834V1155.26C450.834 1295.31 564.372 1408.85 704.427 1408.85H1408.85V2113.28C1408.85 2253.33 1522.4 2366.88 1662.45 2366.88H2395.05C2441.74 2366.88 2479.58 2329.03 2479.58 2282.34C2479.58 2235.66 2441.74 2197.81 2395.05 2197.81H2254.17V1493.39C2254.17 1353.33 2140.62 1239.79 2000.57 1239.79H1296.15V591.719C1296.15 451.663 1182.6 338.125 1042.55 338.125H309.948Z" fill="white"/>
</svg>
