<svg width="27" height="25" viewBox="0 0 27 25" fill="none" xmlns="http://www.w3.org/2000/svg">
<path d="M3.89645 7.88972C3.80404 7.75277 3.92036 7.58717 3.78333 7.51869C3.62877 7.44385 3.51883 7.57443 3.42322 7.66519C3.19856 7.87698 2.98186 8.09832 2.77313 8.32762C2.57236 8.54737 2.36841 8.75437 2.07364 8.84514C1.90315 8.89769 1.78683 9.02508 1.6976 9.17476C1.59403 9.34674 1.48728 9.51871 1.39805 9.69865C1.27695 9.94388 1.10646 10.1318 0.864267 10.2592C0.615701 10.3897 0.391035 10.5553 0.210984 10.7719C0.102635 10.9025 -0.0455486 11.0458 0.0134062 11.2194C0.0787345 11.4136 0.29384 11.385 0.457957 11.3834C0.999704 11.3818 1.04432 11.4996 1.06503 12.0187C1.09371 12.7449 1.32316 13.4152 1.71831 14.0251C1.91111 14.3245 2.11984 14.6127 2.32698 14.9025C2.57077 15.2465 2.73967 15.6207 2.86395 16.0267C3.51245 18.1621 4.83654 19.7099 6.90474 20.5968C7.76357 20.9663 8.65108 21.2274 9.58798 21.3023C9.6804 21.3102 9.77441 21.3182 9.86363 21.3437C10.6683 21.565 11.4905 21.5602 12.3095 21.4806C12.9898 21.4153 13.5985 21.5698 14.1705 21.9185C14.6199 22.1924 15.066 22.4711 15.5217 22.737C15.7623 22.8771 16.0109 23.0029 16.2642 23.1176C16.5494 23.2481 16.849 23.3262 17.1677 23.2688C17.3461 23.237 17.5023 23.2959 17.6568 23.3739C17.9197 23.5061 18.1858 23.6319 18.4742 23.6988C18.6431 23.7386 18.8104 23.7641 18.9443 23.6048C19.0016 23.5364 19.0845 23.5443 19.1578 23.5825C19.3362 23.6749 19.5147 23.7704 19.69 23.866C20.0039 24.038 20.3289 24.1797 20.6731 24.2784C20.7623 24.3039 20.8531 24.3262 20.9455 24.3325C21.0778 24.3437 21.1798 24.2211 21.1638 24.0921C21.1511 23.9806 21.1049 23.8819 21.0395 23.7959C20.9089 23.6223 20.7798 23.4488 20.6364 23.2864C20.1632 22.7529 19.6406 22.2704 19.0893 21.8166C18.9825 21.729 18.8805 21.6335 18.7801 21.5379C18.761 21.5204 18.7499 21.4615 18.7578 21.4551C18.7913 21.4312 18.8423 21.3994 18.8742 21.409C19.0367 21.4567 19.1976 21.5156 19.3585 21.5698C19.7537 21.7051 20.1489 21.8405 20.5456 21.9742C20.6046 21.9934 20.6635 22.0125 20.7257 22.022C20.8308 22.0411 20.9742 22.1016 21.0284 22.0013C21.1065 21.8564 20.9408 21.7911 20.8499 21.7242C20.2747 21.3023 19.6661 20.9328 19.0542 20.5682C18.8678 20.4567 18.6798 20.35 18.4933 20.2386C18.4408 20.2067 18.3866 20.1669 18.3882 20.0984C18.3898 20.014 18.4663 20.0108 18.5236 19.9997C18.7212 19.9631 18.922 19.9376 19.1195 19.8994C19.2104 19.8819 19.2996 19.8564 19.384 19.8198C19.5083 19.7656 19.5147 19.5889 19.392 19.522C19.2837 19.4631 19.1689 19.4169 19.0526 19.3755C18.6288 19.2242 18.1938 19.1159 17.7524 19.0284C17.6616 19.0108 17.5692 18.9933 17.4815 18.9678C17.4369 18.9551 17.3987 18.9201 17.4083 18.8659C17.413 18.8405 17.4353 18.8118 17.4592 18.7959C17.5373 18.7401 17.6297 18.7242 17.7237 18.7242C17.9866 18.7242 18.2496 18.7274 18.5141 18.7258C18.8853 18.7226 19.2566 18.7178 19.6278 18.7115C19.6692 18.7115 19.717 18.7115 19.7378 18.6382C19.392 18.5634 19.0478 18.5076 18.6925 18.5108C18.5539 18.5124 18.4025 18.5236 18.3085 18.3962C18.2002 18.2513 18.052 18.2369 17.8958 18.2338C17.5086 18.2274 17.1214 18.2274 16.7374 18.2863C16.645 18.3006 16.5542 18.3277 16.4618 18.3261C16.2913 18.3261 16.1081 18.4455 15.9503 18.2831C16.0778 18.143 16.2578 18.1637 16.4188 18.1287C17.131 17.9742 17.8353 17.7911 18.5156 17.5331C18.6447 17.4838 18.7706 17.4217 18.8917 17.3532C18.9236 17.3357 18.9538 17.2752 18.949 17.2385C18.9459 17.2035 18.9028 17.1557 18.8662 17.143C18.7053 17.0809 18.5332 17.0666 18.3627 17.0777C18.0998 17.0952 17.8353 17.108 17.5772 17.1541C16.9828 17.2608 16.3965 17.401 15.8165 17.5729C15.7735 17.5857 15.7257 17.5889 15.681 17.592C15.6683 17.5936 15.6444 17.5841 15.6412 17.5729C15.6332 17.549 15.6221 17.506 15.6332 17.4981C15.7942 17.385 15.8181 17.2242 15.8069 17.0443C15.7974 16.8707 15.885 16.7576 16.03 16.6685C16.3056 16.4981 16.5861 16.3293 16.8458 16.1366C17.2202 15.8595 17.5803 15.5649 17.7699 15.1175C17.8369 14.9583 17.9803 14.9025 18.1316 14.8547C18.4264 14.7624 18.7212 14.6653 19.0144 14.5665C19.102 14.5363 19.1865 14.4965 19.2693 14.4551C19.3761 14.4009 19.5131 14.3802 19.5402 14.2321C19.5545 14.1525 19.4159 14.143 19.1753 14.2051C19.0733 14.2305 18.9761 14.2958 18.8646 14.2465C18.8821 14.0904 19.0207 14.0872 19.1243 14.0506C19.333 13.9789 19.5051 13.8452 19.6836 13.7242C19.7473 13.6812 19.8174 13.627 19.8127 13.5442C19.8095 13.4885 19.7696 13.4328 19.7362 13.3834C19.682 13.3038 19.6995 13.2385 19.7648 13.1812C19.9194 13.049 20.0995 12.9582 20.2875 12.885C20.4882 12.8054 20.6954 12.7369 20.9009 12.6684C21.7582 12.3802 22.5548 11.971 23.2989 11.4598C23.4137 11.3818 23.53 11.299 23.6208 11.1955C23.7323 11.0681 23.8359 10.9168 23.7977 10.7353C23.7562 10.5394 23.8678 10.455 24.0096 10.3722C24.2359 10.2385 24.4605 10.1015 24.6788 9.95502C24.7792 9.88655 24.8748 9.80056 24.9513 9.70661C25.1058 9.51394 25.0246 9.30534 24.7824 9.26075C24.7059 9.24642 24.6278 9.2496 24.5513 9.23846C24.5083 9.23209 24.4494 9.22412 24.4573 9.16361C24.4621 9.12221 24.4844 9.07444 24.5163 9.04896C24.6453 8.93909 24.7824 8.83559 24.9162 8.73049C25.4771 8.28622 25.9965 7.80373 26.4331 7.23366C26.594 7.02347 26.7374 6.80372 26.7916 6.53939C26.7996 6.50117 26.7805 6.44703 26.7566 6.41359C26.7135 6.35786 26.645 6.35467 26.5909 6.3913C26.3471 6.5569 26.1081 6.72569 25.8675 6.89608C25.7591 6.97251 25.6619 7.07283 25.5185 7.09194C25.4755 6.95659 25.6014 6.88971 25.6077 6.78302C25.6109 6.71932 25.6109 6.65881 25.5631 6.61263C25.5121 6.56327 25.45 6.56805 25.391 6.58716C25.2253 6.6413 25.1011 6.76073 24.9608 6.85627C24.921 6.88334 24.8684 6.88175 24.8445 6.83079C24.8334 6.8085 24.8366 6.7655 24.8525 6.7448C24.9003 6.68429 24.9561 6.63015 25.0086 6.57442C25.2859 6.28142 25.5392 5.96772 25.7352 5.61422C25.8053 5.48842 25.9567 5.33715 25.8053 5.20179C25.681 5.09192 25.5472 5.22886 25.4325 5.29893C25.313 5.37059 25.2014 5.45339 25.0867 5.53301C24.9083 5.65403 24.7394 5.78938 24.5258 5.85626C24.4287 5.88651 24.3442 5.97091 24.2598 6.0362C24.0383 6.20658 23.8248 6.38333 23.6001 6.54894C23.2511 6.8085 22.8783 7.01073 22.4592 7.15245C21.9478 7.32602 21.4538 7.5601 20.9742 7.80851C19.7186 8.46138 18.4264 9.01075 17.0402 9.31967C16.9494 9.34037 16.8585 9.36266 16.7725 9.3961C16.6514 9.44228 16.567 9.51871 16.5446 9.66203C16.5 9.96298 16.3279 10.205 16.1479 10.4391C15.9583 10.6843 15.7591 10.9216 15.5663 11.162C15.4882 11.2592 15.4102 11.3563 15.4277 11.4933C15.4484 11.6509 15.3608 11.7576 15.2524 11.8515C15.0644 12.0124 14.8748 12.1716 14.6852 12.3308C14.5784 12.42 14.4749 12.5108 14.4063 12.6382C14.1291 13.1509 13.6575 13.4439 13.1715 13.7178C13.0552 13.7831 12.9404 13.7895 12.8401 13.6684C12.7827 13.5984 12.6951 13.5538 12.6265 13.4933C12.5851 13.4566 12.5963 13.3993 12.6281 13.3675C12.6935 13.3022 12.7636 13.2401 12.8401 13.1923C13.1412 13.0028 13.4503 12.8245 13.7499 12.6334C13.9443 12.5092 14.1514 12.3898 14.2167 12.1413C14.239 12.0538 14.3044 12.0187 14.384 12.0028C14.596 11.963 14.7441 11.8292 14.8748 11.6732C15.1138 11.3898 15.3703 11.1175 15.501 10.7592C15.5568 10.6047 15.6699 10.5028 15.8085 10.4264C15.9312 10.3595 16.0443 10.2799 16.1272 10.162C16.2339 10.0108 16.2355 9.89133 16.1288 9.73528C16.1192 9.72254 16.1128 9.70661 16.1001 9.69865C15.8292 9.51394 15.8993 9.27349 16.0045 9.03941C16.0603 8.91361 16.1415 8.79737 16.2244 8.6859C16.5415 8.26392 16.8346 7.82921 17.0657 7.35309C17.1135 7.25595 17.1629 7.15723 17.2298 7.07283C17.6202 6.57123 17.9341 6.02027 18.2511 5.4725C18.3053 5.38014 18.3706 5.29256 18.4408 5.20976C18.9283 4.62854 19.4079 4.04096 19.9369 3.49636C20.0118 3.41993 20.0787 3.33394 20.1425 3.24636C20.1552 3.22885 20.1536 3.18267 20.1393 3.16356C20.125 3.14286 20.0851 3.12693 20.0596 3.13012C19.87 3.15082 19.717 3.26706 19.545 3.33394C19.5211 3.3435 19.4765 3.33872 19.4621 3.3228C19.4239 3.28299 19.4462 3.23681 19.4828 3.20815C19.6645 3.06324 19.8557 2.93266 20.0819 2.86101C20.364 2.77184 20.6269 2.63808 20.8818 2.49158C21.0889 2.37215 21.2467 2.20495 21.3088 1.9645C21.3248 1.90399 21.3232 1.8403 21.277 1.78934C21.2276 1.7352 21.1686 1.74635 21.1081 1.77183C21.022 1.80686 20.9392 1.85144 20.8499 1.87374C20.7225 1.90399 20.5998 1.76864 20.6412 1.64762C20.681 1.53138 20.7336 1.41832 20.7782 1.30208C20.8515 1.1094 20.8675 0.910353 20.8292 0.708122C20.7942 0.518629 20.6794 0.45175 20.493 0.501113C20.4627 0.509075 20.4341 0.520222 20.407 0.534553C20.2843 0.601433 20.168 0.59984 20.0692 0.494744C19.8987 0.311621 19.6836 0.316398 19.4653 0.354615C18.855 0.461304 18.2432 0.561623 17.6743 0.824365C17.66 0.830734 17.6473 0.841881 17.6313 0.843473C17.1453 0.88169 16.7725 1.1715 16.3773 1.41036C16.0571 1.60463 15.7065 1.73202 15.3608 1.861C14.6947 2.111 14.0176 2.33234 13.3452 2.56323C13.052 2.66355 12.7604 2.76865 12.4927 2.9263C12.3684 2.99954 12.2505 3.05368 12.1055 2.96292C12.0338 2.91833 11.9525 2.95974 11.8968 3.01865C11.8219 3.09668 11.7582 3.18426 11.6849 3.26388C11.6339 3.31961 11.5813 3.38331 11.516 3.41675C11.4235 3.46452 11.3901 3.35624 11.3311 3.31643C11.2355 3.25273 11.1463 3.29254 11.0762 3.35146C10.9184 3.48044 10.8117 3.65401 10.7049 3.82439C10.5982 3.99478 10.493 4.16675 10.3831 4.33395C10.3719 4.35147 10.3289 4.36421 10.3066 4.35784C10.2827 4.35147 10.2492 4.32121 10.246 4.29892C10.2285 4.19223 10.2237 4.08395 10.2078 3.97726C10.2014 3.93267 10.1775 3.87853 10.1218 3.8865C10.0819 3.89127 10.0325 3.91994 10.0118 3.95178C9.95286 4.04255 9.90666 4.14127 9.85726 4.23682C9.74891 4.44383 9.6087 4.63013 9.43342 4.78459C8.97135 5.19383 8.6686 5.71135 8.42163 6.2655C8.334 6.46295 8.25911 6.66678 8.18103 6.86901C8.08702 7.11582 7.98664 7.35786 7.84005 7.5792C7.75401 7.70978 7.69505 7.8515 7.66797 8.00596C7.66 8.05214 7.62654 8.09195 7.57237 8.08399C7.5166 8.07602 7.50704 8.02507 7.49748 7.98048C7.48632 7.9359 7.47836 7.87539 7.42418 7.88016C7.38753 7.88335 7.34133 7.92634 7.32539 7.96137C7.24094 8.16042 7.16765 8.36424 7.08479 8.56329C7.04018 8.67157 6.9398 8.68113 6.87287 8.58399C6.83782 8.53303 6.81073 8.4773 6.78205 8.42316C6.71194 8.28781 6.59881 8.21456 6.45063 8.20182C6.12877 8.17475 5.81488 8.06488 5.48345 8.11265C5.28747 8.14131 5.11698 8.10469 5.01819 7.89768C4.95764 7.77029 4.82698 7.74481 4.69951 7.75437C4.59276 7.76073 4.486 7.78621 4.37925 7.80532C4.21035 7.84035 4.06535 7.90405 3.89645 7.88972ZM7.16924 19.8022C7.16924 19.9265 7.17243 19.9726 7.16924 20.0188C7.15649 20.1669 7.05133 20.2354 6.90793 20.1717C6.72628 20.0889 6.54942 19.9933 6.37415 19.8946C6.21322 19.8038 6.06822 19.6765 5.89773 19.6128C5.67147 19.5284 5.49779 19.3882 5.33368 19.2226C5.12654 19.014 4.93055 18.7927 4.70429 18.6096C4.40793 18.3691 4.18486 18.0825 4.03667 17.7369C3.89645 17.4105 3.77217 17.0793 3.64311 16.7481C3.59212 16.6159 3.56025 16.4774 3.61124 16.342C3.67179 16.1796 3.69569 16.0156 3.69728 15.8436C3.69888 15.729 3.75146 15.6398 3.85662 15.5809C3.93629 15.5363 4.0064 15.4742 4.08447 15.4264C4.14343 15.3898 4.20557 15.4073 4.25337 15.4519C4.28683 15.4837 4.31551 15.522 4.33623 15.5618C4.43979 15.7513 4.5832 15.8341 4.79352 15.7337C4.96401 15.6525 5.09148 15.7258 5.20302 15.8484C5.29703 15.9503 5.37988 16.0634 5.48027 16.1605C5.61092 16.2879 5.70653 16.463 5.88976 16.5251C6.02998 16.5729 6.08097 16.6748 6.11124 16.7959C6.18772 17.0984 6.32635 17.3723 6.47612 17.643C6.54942 17.7768 6.60359 17.9232 6.65936 18.0666C6.76453 18.3405 6.86172 18.6159 6.96688 18.8898C7.09117 19.2067 7.14853 19.5395 7.16924 19.8022ZM14.2199 9.93751C14.2693 9.96298 14.2821 10.0123 14.2629 10.0506C13.9984 10.5983 13.6606 11.0904 13.1699 11.463C13.0838 11.5283 12.9835 11.5745 12.8703 11.5776C12.8432 11.5776 12.8082 11.5665 12.7891 11.5474C12.7524 11.5108 12.7636 11.4646 12.7859 11.4232C12.7938 11.4105 12.8018 11.3961 12.813 11.385C13.2511 10.971 13.624 10.4948 14.0335 10.0553C14.0749 10.0108 14.1275 9.97572 14.1769 9.94069C14.1865 9.93114 14.2056 9.93751 14.2199 9.93751ZM15.254 18.5825C15.1568 18.5825 15.1026 18.5538 15.0915 18.4838C15.0803 18.4137 15.1234 18.3707 15.1903 18.3596C15.2684 18.3468 15.3432 18.358 15.4038 18.4137C15.4436 18.4503 15.4388 18.4981 15.3942 18.5236C15.3448 18.5538 15.2859 18.5698 15.254 18.5825Z" fill="#509BF5"/>
</svg>
